<?xml version="1.0" encoding="UTF-8" standalone="no"?>
<!-- Created with Inkscape (http://www.inkscape.org/) -->

<svg
   version="1.1"
   id="svg1"
   width="1600"
   height="800"
   viewBox="0 0 1600 800"
   sodipodi:docname="225525225525552.svg"
   inkscape:version="1.3.1 (91b66b0, 2023-11-16)"
   xmlns:inkscape="http://www.inkscape.org/namespaces/inkscape"
   xmlns:sodipodi="http://sodipodi.sourceforge.net/DTD/sodipodi-0.dtd"
   xmlns:xlink="http://www.w3.org/1999/xlink"
   xmlns="http://www.w3.org/2000/svg"
   xmlns:svg="http://www.w3.org/2000/svg">
  <defs
     id="defs1">
    <linearGradient
       id="linearGradient7"
       inkscape:collect="always">
      <stop
         style="stop-color:#000000;stop-opacity:0.96180558;"
         offset="0"
         id="stop7" />
      <stop
         style="stop-color:#000000;stop-opacity:0;"
         offset="1"
         id="stop8" />
    </linearGradient>
    <linearGradient
       id="linearGradient1"
       inkscape:collect="always">
      <stop
         style="stop-color:#ffffff;stop-opacity:1;"
         offset="0"
         id="stop1" />
      <stop
         style="stop-color:#ffffff;stop-opacity:0;"
         offset="1"
         id="stop6" />
    </linearGradient>
    <pattern
       inkscape:collect="always"
       xlink:href="#pills"
       id="pattern50"
       patternTransform="matrix(12.7,0,0,12,200,604.5)"
       x="0"
       y="0"
       preserveAspectRatio="none" />
    <pattern
       patternUnits="userSpaceOnUse"
       width="11"
       height="16"
       patternTransform="translate(200,604.5) scale(2)"
       style="fill:#ffffff"
       id="pills"
       inkscape:label="Pills"
       inkscape:collect="always"
       inkscape:isstock="true">
      <path
         id="rect15756"
         style="opacity:1;stroke-width:4.8561;stroke-linecap:square;paint-order:stroke markers fill;stop-color:#000000"
         d="M 10.5,0 V 5 C 10.5,6.385 9.385,7.5 8,7.5 6.615,7.5 5.5,6.385 5.5,5 V 0 Z M 8,8.5 c 1.385,0 2.5,1.115 2.5,2.5 v 5 h -5 V 11 C 5.5,9.615 6.615,8.5 8,8.5 Z M 2.5,0.5 C 3.885,0.5 5,1.615 5,3 V 13 C 5,14.385 3.885,15.5 2.5,15.5 1.115,15.5 0,14.385 0,13 V 3 C 0,1.615 1.115,0.5 2.5,0.5 Z" />
    </pattern>
    <radialGradient
       fx="0"
       fy="0"
       cx="0"
       cy="0"
       r="1"
       gradientUnits="userSpaceOnUse"
       gradientTransform="matrix(4872.43,0,0,-4313.95,6000,3000)"
       spreadMethod="pad"
       id="radialGradient5">
      <stop
         style="stop-opacity:1;stop-color:#001245"
         offset="0"
         id="stop2" />
      <stop
         style="stop-opacity:1;stop-color:#001245"
         offset="0.00000014"
         id="stop3" />
      <stop
         style="stop-opacity:1;stop-color:#00050f"
         offset="0.959777"
         id="stop4" />
      <stop
         style="stop-opacity:1;stop-color:#00050f"
         offset="1"
         id="stop5" />
    </radialGradient>
    <linearGradient
       inkscape:collect="always"
       xlink:href="#linearGradient1"
       id="linearGradient6"
       x1="98.104554"
       y1="292.13553"
       x2="654.03229"
       y2="292.13553"
       gradientUnits="userSpaceOnUse" />
    <linearGradient
       inkscape:collect="always"
       xlink:href="#linearGradient7"
       id="linearGradient8"
       x1="94.010634"
       y1="292.13553"
       x2="658.12621"
       y2="292.13553"
       gradientUnits="userSpaceOnUse" />
  </defs>
  <sodipodi:namedview
     id="namedview1"
     pagecolor="#505050"
     bordercolor="#eeeeee"
     borderopacity="1"
     inkscape:showpageshadow="0"
     inkscape:pageopacity="0"
     inkscape:pagecheckerboard="0"
     inkscape:deskcolor="#505050"
     showguides="false"
     inkscape:zoom="0.5"
     inkscape:cx="798"
     inkscape:cy="400"
     inkscape:window-width="1366"
     inkscape:window-height="710"
     inkscape:window-x="0"
     inkscape:window-y="0"
     inkscape:window-maximized="1"
     inkscape:current-layer="g1">
    <inkscape:page
       x="0"
       y="0"
       inkscape:label="1"
       id="page1"
       width="1600"
       height="800"
       margin="0"
       bleed="0" />
    <sodipodi:guide
       position="-48,340"
       orientation="0,-1"
       id="guide35"
       inkscape:locked="false" />
    <sodipodi:guide
       position="254,536"
       orientation="0,-1"
       id="guide36"
       inkscape:locked="false" />
  </sodipodi:namedview>
  <g
     id="g1"
     inkscape:groupmode="layer"
     inkscape:label="1">
    <path
       id="path6"
       d="m 853.35768,458.9562 c -28.93387,0 -52.04978,-12.43492 -68.70695,-36.96063 l -0.52531,-0.77451 h -16.01081 c -0.87499,-0.82673 -3.27764,-4.2436 -8.69764,-18.27027 v -1.43906 h 15.87395 l -2.53003,-20.43321 v -2.61783 c 1.76817,-15.2189 3.00628,-19.34621 3.53317,-20.46011 7.07584,-0.33069 11.74269,-0.49841 13.87715,-0.49841 h 1.76579 v -4.6811 h -2.38366 c -2.72859,0 -6.46983,-0.0949 -11.16991,-0.2848 l 0.0847,-0.21202 c 7.22931,-18.15952 18.5171,-31.63952 33.55325,-40.07213 6.19135,-0.0673 11.60345,-1.50156 16.09467,-4.26338 10.07974,-4.49914 23.06054,-6.77996 38.5856,-6.77996 11.75377,0 22.87067,2.49917 33.11576,7.43501 -0.19066,0.0467 -0.37579,0.0965 -0.55695,0.14952 l -1.27372,0.36946 v 2.97542 l 1.01106,0.47784 c 8.40888,3.97779 17.3407,12.3843 26.54862,24.98456 l 0.52847,0.72468 h 0.89714 c 2.65344,0 3.96117,0.62103 4.63125,1.24365 -0.36945,0.13844 -0.87815,0.30774 -1.57513,0.50474 l -1.28716,0.36233 v 1.11391 c -0.48259,0.69619 -3.18903,3.11545 -18.11917,9.65174 l -0.14003,0.0617 -0.12816,0.0847 c -7.14783,4.74122 -10.09714,5.44927 -11.21896,5.44927 h -3.76814 l -10.74349,-12.89219 -0.31487,-0.16376 c -0.51581,-0.26899 -0.96201,-0.51424 -1.3465,-0.73812 v -4.76417 h -1.62497 c -0.36155,-0.10601 -1.75235,-0.63606 -6.84641,-3.25073 l -0.37974,-0.19541 h -2.81324 c -3.20802,0 -5.77997,-0.66455 -7.64387,-1.97624 l -0.45727,-0.32119 h -9.83844 c -0.8204,0 -1.58146,0.12183 -2.2737,0.36154 l -1.05062,-0.48417 -0.64951,0.20332 c -13.6319,4.26496 -22.72906,9.9405 -27.04386,16.87235 -0.30696,0.28718 -1.59017,1.13922 -6.2768,1.6139 l -1.58779,0.16139 v 2.25075 l 0.0174,0.12421 c 0.26977,1.89712 1.50709,2.65423 2.6566,2.74521 -1.6677,2.28002 -3.7088,7.27045 -6.08693,19.28608 l -0.034,0.17009 v 4.85672 c 0,4.49597 1.01265,10.31787 3.01103,17.3225 h -4.93663 l -3.02289,0.54272 c -0.79034,-0.36867 -1.44697,-0.54272 -2.03399,-0.54272 h -0.4454 l -0.74999,0.40427 c -0.65347,-0.27452 -1.21279,-0.40427 -1.72149,-0.40427 h -1.76579 v 2.68588 l 0.10047,0.2848 c 2.70961,7.70083 8.20082,14.24028 16.32094,19.43718 5.53392,3.91292 7.85351,4.36623 9.11693,4.36623 h 14.23553 c 9.19052,2.73492 15.75291,4.0656 20.05347,4.0656 h 0.29034 l 0.27532,-0.0941 c 8.83688,-2.98808 12.54014,-3.82667 14.06701,-3.95404 0.84334,0.40901 1.53716,0.60125 2.1582,0.60125 h 0.53717 l 0.44699,-0.29984 c 10.49191,-7.04181 13.41513,-9.80759 14.29881,-11.36215 2.40661,-1.89554 5.48172,-5.97221 9.38197,-12.43413 l 0.25474,-0.42088 v -2.87575 h -47.54431 l -8e-4,-14.58441 c 1.49523,-1.00077 2.91689,-2.28873 2.91689,-3.8868 v -0.38845 l -0.37104,-0.80299 c 0.24604,-0.72863 0.37104,-1.51342 0.37104,-2.34332 v -1.25551 c 3.38127,-0.28244 5.90338,-0.42484 7.51332,-0.42484 h 60.35819 c 0.51028,0 0.97072,0.12342 1.40821,0.37816 l 0.92957,0.54192 0.90742,-0.57752 c 0.36313,-0.23101 0.80458,-0.34256 1.34967,-0.34256 h 9.62326 l 2.57353,2.95961 v 1.8449 c -1.95092,1.54665 -3.10834,4.29661 -3.52605,8.35983 -0.36471,5.8219 -0.53876,9.64383 -0.53876,11.75772 v 1.7658 h 1.7658 c 0.47705,0 0.81881,0.0261 1.05852,0.0577 -5.19295,17.55351 -8.4785,20.30663 -9.49984,20.72751 -0.78243,-0.36155 -1.65504,-0.54509 -2.60518,-0.54509 h -1.04033 l -0.50474,0.91059 c -8.791,15.87157 -24.79864,27.6823 -47.57992,35.10623 -6.348,1.1408 -11.07814,1.71832 -14.06148,1.71832 h -11.04649"
       style="fill:#d53fff;fill-opacity:1;fill-rule:nonzero;stroke:none;stroke-width:0.0791126" />
    <path
       id="path7"
       d="m 967.18097,459.9285 c -3.04188,0 -7.88357,-0.17642 -14.40562,-0.52531 v -3.7175 c 0,-1.0609 -0.59492,-1.84966 -1.25077,-2.40503 0.42563,-0.47705 0.76344,-1.02925 1.03163,-1.515 l 0.21914,-0.39794 v -59.11454 l -0.91137,-0.50395 c -2.02054,-1.11707 -2.88682,-1.7294 -3.24283,-2.01895 v -62.53853 c 0,-1.0791 -0.59967,-1.80219 -1.82671,-2.318 1.09887,-0.53085 2.14,-1.18511 3.12099,-1.96121 2.71277,-0.30142 2.85992,-2.42717 2.85992,-2.87891 v -10.86928 c 0,-1.39792 -0.44382,-4.42002 -4.1542,-5.1439 v -3.25391 h 40.00488 c 0.20253,0.66218 0.54034,2.2025 0.83306,5.63124 l 0.13766,1.61548 h 1.6218 c 0.58939,0 0.98337,0.038 1.23812,0.0791 v 11.0647 l -3.60042,2.73334 h -4.92239 l -0.12499,0.0182 c -2.02924,0.29272 -2.75233,1.68827 -2.75233,2.89711 v 3.00311 h 7.77677 v 61.47447 l -1.29349,2.80375 2.16215,0.46044 c 1.57513,0.33544 2.37021,0.61471 2.7547,0.78559 v 35.43534 l 0.0182,0.12341 c 0.2413,1.69934 1.38527,2.7547 2.98492,2.7547 0.90742,0 1.53241,-0.21914 1.96358,-0.52609 l 5.10433,0.52609 h 44.3134 l -0.2999,1.70251 v 17.44987 l -3.4667,-0.59176 -0.5736,0.36392 c -0.1629,0.10363 -0.6898,0.34335 -2.0585,0.34335 h -1.7666 v 4.7697 h 1.7666 c 0.076,0.004 0.6329,0.0562 3.333,0.50553 l 0.273,0.0459 2.4928,-0.3655 v 4.05848 h -79.36022"
       style="fill:#d53fff;fill-opacity:1;fill-rule:nonzero;stroke:none;stroke-width:0.0791126" />
    <path
       id="path8"
       d="m 1057.291,435.08634 c -0.6028,-0.25791 -1.2863,-0.52293 -2.0585,-0.79904 -0.023,-0.0562 -0.042,-0.10522 -0.057,-0.14794 0.2049,-0.46913 0.3647,-0.74603 0.4691,-0.90188 h 1.1922 c 0.1148,0.32436 0.2754,0.89081 0.4541,1.84886 z m 22.3881,24.57713 c -3.0411,0 -7.8527,-0.17642 -14.317,-0.52452 v -2.89552 l -4.5339,-2.55059 c -0.055,-0.0997 -0.1155,-0.19383 -0.1828,-0.28322 l 0.4739,-3.25232 v -3.66292 c 0,-0.87894 -0.1416,-1.68431 -0.424,-2.40502 0.2824,-0.73575 0.424,-1.52846 0.424,-2.36705 0,0 -8e-4,-3.06482 0,-3.0941 h 1.2405 c 1.7967,0 3.0039,-1.17086 3.0039,-2.9153 v -44.27459 c 0,-1.77608 -1.1811,-2.97622 -2.9446,-3.00232 -5.6921,-0.33465 -9.4721,-0.53085 -11.4602,-0.59572 v -0.12737 l 2.2737,-1.13606 h 12.1319 c 1.7429,0 2.9145,-1.17166 2.9145,-2.91451 v -2.3805 l -2.0506,-3.15422 -5.2333,0.76265 h -0.7247 c -0.069,-0.0815 -0.17,-0.21994 -0.2982,-0.44145 v -68.63179 l 0.8188,-1.77212 c 0.4335,1.25235 1.4581,2.00155 2.8061,2.00155 h 1.1488 c 1.7966,0 3.0031,-1.20726 3.0031,-3.00391 0,-1.79665 -1.2065,-3.00312 -3.0031,-3.00312 h -1.3355 l -0.1835,0.0396 c -1.6487,0.35284 -2.6337,1.46042 -2.6337,2.96356 v 0.125 c 0,0 0.034,0.2318 0.043,0.2848 l -0.6645,-0.4636 v -5.95718 h 39.9281 c 0.2002,0.57278 0.5364,1.92086 0.822,4.94059 l 0.051,0.5435 h -0.7136 l 0.036,1.76421 v 70.60961 c 0,3.05691 4.4905,3.3876 6.4074,3.52842 l 0.5451,0.0404 0.4723,-0.27452 c 0.1835,-0.10681 0.3765,-0.19067 0.5806,-0.25158 0.1148,0.15268 0.2445,0.31961 0.3893,0.50078 v 0.8647 c -0.1005,0.0823 -0.2698,0.2049 -0.5435,0.3655 0,0 -3.1416,0 -3.1701,-7.9e-4 v -1.03084 l -4.8678,1.03163 h -5.9508 l -0.125,0.0174 c -1.6978,0.24525 -2.7523,1.38921 -2.7523,2.98571 v 2.52053 l 0.021,0.1329 c 0.2508,1.63289 1.3932,2.6479 2.9834,2.6479 h 10.7822 v 40.12197 c 0,0.87578 0.1551,1.70014 0.4612,2.46278 -0.2594,0.54034 -0.5569,0.83543 -0.8702,0.99366 -0.3932,-0.28639 -0.89,-0.45016 -1.4478,-0.45016 h -1.1637 l -1.1329,2.63999 v 17.80984 l 0.018,0.12341 c 0.2888,2.03003 1.6859,2.75471 2.8971,2.75471 h 0.4771 l 0.4129,-0.2413 c 0.1464,-0.0854 0.2983,-0.15506 0.4573,-0.21202 0.2089,0.54667 0.3528,1.10916 0.4327,1.69301 h -25.729"
       style="fill:#d53fff;fill-opacity:1;fill-rule:nonzero;stroke:none;stroke-width:0.0791126" />
    <path
       id="path9"
       d="m 1147.4628,406.37241 h 4.1511 v -4.68109 h -4.1511 z m 20.2363,52.49519 c -3.6685,0 -9.1051,-0.17959 -16.1762,-0.5348 -0.3505,-6.43265 -0.5277,-11.27276 -0.5277,-14.40167 v -33.59755 l -1.3987,-0.29746 c -2.5174,-0.5348 -3.5743,-0.9723 -3.9928,-1.19698 v -2.4161 l -0.5301,0.28481 v -33.65214 h 6.5403 v -5.91842 h -1.7658 c -0.5902,0 -0.9842,-0.0372 -1.2389,-0.0783 v -7.08137 c 0,-1.23257 -0.5681,-2.18746 -1.5055,-2.6653 l 1.7246,-2.10756 h 3.7436 l 0.8086,-7.05685 v -0.10047 c 0,-0.8204 -0.1788,-1.40979 -0.4399,-1.83383 l 0.4399,-2.14 v -9.72452 c 0,-2.4169 -1.2374,-4.25231 -3.4842,-5.16922 l -0.3212,-0.13133 h -0.3465 c -0.5158,0 -0.9786,0.13528 -1.3568,0.37262 l -2.1115,-0.37262 h -34.0896 v -23.86037 h -1.7666 c -0.265,0 -0.4675,-0.0127 -0.6194,-0.0293 0,-0.55775 0.1281,-1.03875 0.3789,-1.46912 l 0.5174,-0.88844 -0.5174,-0.88922 c -0.078,-0.13212 -0.1424,-0.26899 -0.1954,-0.41139 7.8717,-0.36946 13.8416,-0.55695 17.7576,-0.55695 h 99.4193 c 0.5696,0 1.0593,0.12341 1.496,0.37816 l 0.8892,0.51818 0.8893,-0.51818 c 0.2144,-0.12421 0.4406,-0.21756 0.6835,-0.28085 0.081,0.12658 0.1392,0.22942 0.1812,0.3117 l -0.5997,1.20014 0.1187,0.59413 c 0.4185,2.09649 1.2088,3.81956 2.352,5.13283 v 21.06928 l -1.7025,-0.30063 h -12.7435 l -3.242,0.47467 c -0.8386,-0.31882 -1.8821,-0.47467 -3.1693,-0.47467 h -0.1115 l -3.7784,0.48259 c -0.8133,-0.32041 -1.7025,-0.48259 -2.6495,-0.48259 h -0.09 v -0.34968 l -4.8409,0.87973 h -7.617 v 22.03287 c -0.4058,0.16693 -1.3196,0.4462 -3.2317,0.69382 l -1.5396,0.19857 v 1.55298 c 0,0.22073 -0.01,0.39557 -0.024,0.53164 h -4.9509 l -0.1962,0.0451 c -1.5767,0.36392 -2.5181,1.46992 -2.5181,2.95802 v 0.1345 l 0.021,0.13291 c 0.25,1.63367 1.3591,2.6479 2.8947,2.6479 h 5.1194 l -0.3458,1.67797 v 6.52126 l 1.5815,1.04191 c -0.8552,0.13133 -1.9928,0.27057 -3.5023,0.40031 l -1.6147,0.13924 v 36.32061 c -0.3758,0.21044 -1.4929,0.6685 -4.4493,1.0166 l -1.5593,0.18275 v 3.95484 h 10.3954 c 1.2579,0.58147 1.8686,0.95805 2.1534,1.16216 v 45.94308 h -23.2432"
       style="fill:#d53fff;fill-opacity:1;fill-rule:nonzero;stroke:none;stroke-width:0.0791126" />
    <path
       id="path10"
       d="m 1304.734,419.35005 c 1.2136,-0.94619 2.7009,-2.25313 4.5506,-4.05215 h 2.2649 c -4.0458,3.26735 -5.9904,3.94851 -6.8155,4.05215 z m -59.8851,-34.98282 h 3.5332 c 1.7436,0 2.9153,-1.20646 2.9153,-3.00311 v -1.12973 l -2.5261,-1.16691 h -3.9224 z m 53.8172,75.29624 c -20.6769,0 -39.3348,-7.45953 -55.4572,-22.17052 -1.2547,-1.4715 -3.0427,-2.48968 -5.3449,-3.04505 v -2.22781 l -0.3393,-0.46439 c -6.8852,-9.43023 -9.1407,-13.54408 -9.8567,-15.30909 h 3.9058 l 5.2705,-0.95805 -0.8948,-2.04585 c -4.4287,-10.12088 -6.9374,-20.52736 -7.4548,-30.92908 l -0.084,-1.67877 h -0.1092 c 0.1274,-0.34414 0.1954,-0.73101 0.1954,-1.1503 0,-1.79586 -1.1716,-3.00312 -2.9153,-3.00312 h -0.043 c 2.0988,-0.54508 3.5387,-1.5514 3.5759,-3.37573 0.7484,-10.67863 3.8235,-20.84618 9.1383,-30.21945 l 0.2302,-0.40505 v -0.99682 c 0,-1.74364 -1.1717,-2.9153 -2.9153,-2.9153 h -4.3599 c 6.53,-10.94682 13.9476,-18.68245 22.0701,-23.00912 l 0.9351,-0.49841 v -1.06011 c 0,-1.74364 -1.1709,-2.9153 -2.9145,-2.9153 h -7.1843 c 4.6178,-2.93587 11.4809,-5.70639 20.4823,-8.2649 6.1447,-1.08542 11.7205,-1.63604 16.5717,-1.63604 h 1.1487 c 0.3972,0 0.7809,-0.0316 1.1503,-0.0949 v 0.63369 l 4.2966,-1.15742 c 18.1888,0.038 33.9227,4.45484 46.7643,13.13033 l 0.4478,0.303 h 0.5411 c 18.7426,0 19.2663,2.88761 19.2663,2.91688 v 0.84572 l 0.6582,0.53005 c 8.4231,6.7847 15.0678,14.15483 19.756,21.91341 v 1.96436 l -20.7354,10.57895 -0.045,0.0269 c -4.8686,2.86388 -7.0102,3.29188 -7.8535,3.29188 h -4.9287 c -8.8361,-12.1691 -16.7774,-19.02342 -24.2559,-20.93795 -2.432,-1.13606 -6.1993,-2.50787 -11.2024,-4.07984 l -0.2587,-0.0807 h -0.2706 c -7.1415,0 -15.4712,2.41452 -24.7551,7.17631 l -0.9604,0.49287 v 3.46276 h 1.7666 c 1.3227,0 2.318,0.0388 3.0664,0.0926 -9.1984,8.62881 -13.8519,15.47759 -14.1818,20.86279 -0.8496,1.26738 -1.9794,3.88443 -3.1834,10.50853 h -10.4049 l -0.1353,0.0206 c -1.6305,0.25316 -2.644,1.39634 -2.644,2.98255 0,1.88921 2.0672,2.92083 2.7452,3.25944 l 0.3727,0.18591 h 9.2427 c 0.3465,1.23811 1.0411,4.51259 2.2381,13.14615 l 0.013,0.0965 0.024,0.0957 c 1.8061,7.12014 5.2974,13.62003 10.393,19.36203 h -5.7634 v 3.74598 l 0.5317,0.52056 c 5.397,5.27602 14.3328,9.35507 26.5605,12.12401 l 0.1922,0.0443 h 0.1978 c 4.6392,0 11.0892,-1.73573 19.7101,-5.3045 7.8504,-0.0744 14.0908,-2.6297 18.5654,-7.59798 h 1.4912 v -4.68109 h -4.7815 c 1.3615,-2.08699 3.2428,-4.60198 5.6186,-7.51412 h 5.9777 c 0.7563,0.24051 4.2222,1.78557 19.8248,10.30047 l 0.3956,0.21597 h 0.4502 c 6.9112,0 11.8843,1.27846 14.8114,3.80374 -0.4588,0.50869 -0.814,0.92087 -1.087,1.26185 l -3.0743,-0.46835 h -0.1337 c -3.2689,0 -6.9026,3.7175 -11.7482,12.03461 -1.1923,0.43196 -3.5356,0.86787 -8.136,0.86787 h -1.1487 c -1.9517,0 -2.9897,1.97544 -3.3306,2.62416 l -1.3608,2.58778 h 7.9137 c -11.5038,10.44366 -21.3272,16.36682 -29.2132,17.61047 l -0.2666,0.0411 -0.2421,0.12025 c -5.9136,2.92796 -12.7268,4.41211 -20.2496,4.41211 h -12.2838"
       style="fill:#d53fff;fill-opacity:1;fill-rule:nonzero;stroke:none;stroke-width:0.0791126" />
    <path
       id="path11"
       d="m 1485.6219,400.19134 z m -0.3086,1.84966 c -1.8037,-0.0222 -2.9113,-0.15823 -3.568,-0.29509 l -0.6803,-1.35679 v -0.20332 h 4.2483 z m -43.0871,17.82249 c 0.07,0.0103 0.1385,0.0206 0.2049,0.0301 h -0.2737 c 0.023,-0.009 0.046,-0.0198 0.069,-0.0301 z m 62.6121,39.18132 c -3.1487,0 -8.1328,-0.1606 -14.8494,-0.47784 v -38.14415 h 3.9161 l 0.8544,-5.78868 v -0.13053 c 0,-0.97309 -0.1899,-1.88446 -0.5696,-2.71831 0.3164,-2.78081 0.5458,-4.51338 0.712,-5.5901 h 3.3939 c 1.9778,0 3.0142,-2.06563 3.3544,-2.74442 l 0.1819,-0.37262 v -3.42162 c 0,-2.2729 -2.7056,-3.01656 -7.7214,-3.44852 l -1.6059,-3.11071 -2.3418,1.25868 h -12.6343 c -1.2974,0 -2.9667,-0.19699 -4.9603,-0.58622 l -0.6567,-0.12737 -0.5696,0.33702 c -0.3402,0.19541 -0.7041,0.31328 -1.1234,0.35759 l -1.6772,-0.84097 -0.8227,0.48338 c -0.087,0.0483 -0.1741,0.0933 -0.2611,0.13291 v -1.46754 l -3.4177,1.7112 h -16.0472 l -4.0592,-0.71043 -0.5776,0.36788 c -0.1621,0.10284 -0.6859,0.34255 -2.0561,0.34255 h -5.4287 l -0.1258,0.0182 c -2.0284,0.29272 -2.7515,1.68747 -2.7515,2.89711 v 20.3715 l 0.02,0.13291 c 0.144,0.93273 0.5784,1.66374 1.2208,2.11942 h -4.4058 l -4.5229,0.82357 v 38.32374 l -25.0107,0.002 c -3.1463,0 -8.1375,-0.1606 -14.8486,-0.47784 v -6.06477 h 1.8101 l -1.8101,-3.35992 c 0,0 0,-25.71477 0,-25.71477 v 0.87024 l 4.9256,-0.87024 h 10.0995 l 4.5909,-0.94381 v -2.67796 c 0,-1.74365 -1.2064,-2.9153 -3.0031,-2.9153 h -8.9271 v -61.56308 l -3.5521,-2.3979 c -0.07,-1.47466 -0.4122,-3.68982 -2.0799,-4.22857 1.0601,-0.63686 1.6653,-1.84807 1.9106,-2.33778 l 0.1867,-0.37341 v -33.02636 c 0,-0.59651 0.1155,-1.08068 0.3425,-1.43827 l 0.5768,-0.90821 -0.5419,-0.92878 c -0.2532,-0.43591 -0.3774,-0.92483 -0.3774,-1.49681 v -6.54104 h 4.7729 c 0.6779,0 2.0268,0 3.0031,-0.50711 l 3.4066,0.50711 h 24.5209 c 0.9248,0 1.7761,-0.17246 2.5403,-0.51423 0.8513,0.21202 1.3426,0.39398 1.6147,0.51661 v 43.39011 l -5.5276,0.002 -0.1353,0.0206 c -1.6313,0.25395 -2.6439,1.36232 -2.6439,2.89473 v 0.61866 c 0,2.69933 4.0458,3.23175 6.219,3.51814 l 0.5973,0.0783 0.5214,-0.303 c 0.2144,-0.125 0.4414,-0.21835 0.6843,-0.28085 0.081,0.12579 0.1392,0.22943 0.1812,0.31171 l -0.515,1.03004 v 0.41693 c 0,2.00234 2.0031,3.08697 3.5426,3.66607 0.056,3.36862 0.5048,8.79337 4.1447,8.79337 1.4858,0 2.4217,0.0396 3.0055,0.0854 v 0.78321 l 4.9256,-0.86866 h 49.2484 l 0.3639,-1.27292 c 0.6566,-2.25313 0.6883,-2.56246 0.6883,-2.87891 0,-0.58148 -0.1662,-1.2302 -0.5301,-2.01025 l 0.625,-3.03476 -0.3006,-0.56565 c -0.3719,-0.68749 -0.4114,-0.95252 -0.4114,-0.9636 v -1.76579 l -1.7642,0.034 h -2.3813 l -0.01,-4.77208 h -6.0205 c 0.2532,-0.002 3.1091,-0.002 3.1091,-0.002 1.7405,0 2.9114,-1.20726 2.9114,-3.00391 v -43.92254 h 39.2398 v 41.71688 l 0.3481,1.67719 h -8.2514 l -3.1566,0.4731 c -0.8386,-0.31804 -1.8829,-0.4731 -3.1645,-0.4731 h -2.5158 l -0.1266,0.0182 c -2.0253,0.29271 -2.7531,1.68826 -2.7531,2.8971 v 0.75315 l 0.024,0.13291 c 0.2453,1.61311 1.3687,2.62259 2.9272,2.64711 6.5901,0.37183 12.302,0.57752 17.0092,0.61312 l -0.3402,1.58938 v 0.18512 c 0,2.2199 2.6028,3.01024 4.7784,3.38365 v 40.39491 l 1.4082,3.06086 2.4842,-1.06406 h 1.9303 c 1.0681,0.11234 1.606,0.28085 1.8592,0.38923 v 2.27766 c -0.055,0.0498 -0.1345,0.1155 -0.2532,0.1954 -1.5822,-0.44856 -1.8512,-0.47388 -2.1281,-0.47388 h -0.1582 l -5.1424,0.90188 v 14.15246 c -0.3322,0.19146 -1.2104,0.5799 -3.3306,0.97071 l -1.4478,0.26741 v 37.30239 l 0.4747,3.16055 -0.3797,0.24525 h -24.4854"
       style="fill:#d53fff;fill-opacity:1;fill-rule:nonzero;stroke:none;stroke-width:0.0791126" />
    <path
       id="path12"
       d="m 857.32359,449.04181 c -28.93386,0 -52.04978,-12.43571 -68.70694,-36.96142 l -0.52531,-0.77372 h -16.01081 c -0.87578,-0.82673 -3.27764,-4.2436 -8.69765,-18.27027 v -1.43906 h 15.87395 l -2.53002,-20.43321 v -2.61784 c 1.76817,-15.2189 3.00628,-19.34699 3.53317,-20.46011 7.07583,-0.33069 11.74269,-0.49841 13.87715,-0.49841 h 1.76579 v -4.68109 h -2.38366 c -2.7286,0 -6.46983,-0.0957 -11.16992,-0.2856 l 0.0847,-0.21202 c 7.22931,-18.15951 18.5171,-31.63951 33.55245,-40.07134 6.19215,-0.0672 11.60345,-1.50156 16.09547,-4.26417 10.07974,-4.49913 23.06054,-6.77916 38.5856,-6.77916 11.75376,0 22.87067,2.49838 33.11576,7.435 -0.19067,0.0467 -0.37658,0.0965 -0.55775,0.14874 l -1.27292,0.37024 v 2.97543 l 1.01106,0.47784 c 8.40888,3.97778 17.3407,12.3835 26.54782,24.98456 l 0.52927,0.72467 h 0.89714 c 2.65343,0 3.96116,0.62104 4.63125,1.24365 -0.36946,0.13845 -0.87815,0.30775 -1.57513,0.50474 l -1.28717,0.36234 v 1.11311 c -0.48258,0.69698 -3.18903,3.11625 -18.11916,9.65253 l -0.14082,0.0617 -0.12737,0.0847 c -7.14783,4.74122 -10.09715,5.44928 -11.21897,5.44928 h -3.76813 l -10.7435,-12.89299 -0.31486,-0.16376 c -0.51582,-0.26819 -0.96201,-0.51344 -1.3465,-0.73733 v -4.76416 h -1.62497 c -0.36155,-0.10601 -1.75235,-0.63686 -6.84641,-3.25153 l -0.37974,-0.19462 h -2.81325 c -3.20801,0 -5.77997,-0.66534 -7.64386,-1.97623 l -0.45727,-0.32199 h -9.83845 c -0.82039,0 -1.58146,0.12183 -2.27449,0.36234 l -1.04982,-0.48417 -0.64951,0.20253 c -13.6319,4.26575 -22.72906,9.94129 -27.04387,16.87314 -0.30695,0.28718 -1.59016,1.13922 -6.27679,1.61389 l -1.58858,0.1606 v 2.25155 l 0.0182,0.12341 c 0.26978,1.89792 1.5071,2.65423 2.6566,2.74521 -1.66769,2.28003 -3.7088,7.27124 -6.08692,19.28687 l -0.034,0.17009 v 4.85594 c 0,4.49676 1.01264,10.31787 3.01103,17.32329 h -4.93663 l -3.02289,0.54192 c -0.79034,-0.36787 -1.44697,-0.54192 -2.03399,-0.54192 h -0.4454 l -0.74999,0.40426 c -0.65347,-0.27452 -1.21359,-0.40426 -1.72149,-0.40426 h -1.7658 v 2.68508 l 0.0997,0.2856 c 2.7104,7.70082 8.20161,14.24027 16.32173,19.43718 5.53393,3.91212 7.85351,4.36623 9.11694,4.36623 h 14.23553 c 9.19051,2.73492 15.75211,4.0648 20.05347,4.0648 h 0.29034 l 0.27531,-0.0933 c 8.83688,-2.98808 12.54015,-3.82747 14.06702,-3.95405 0.84334,0.40901 1.53716,0.60126 2.15819,0.60126 h 0.53718 l 0.44698,-0.29984 c 10.49113,-7.04182 13.41513,-9.80838 14.29803,-11.36216 2.4066,-1.89553 5.4825,-5.97221 9.38276,-12.43413 l 0.25474,-0.42088 v -2.87574 H 857.3228 l -7.9e-4,-14.58441 c 1.49523,-1.00078 2.91688,-2.28952 2.91688,-3.8876 v -0.38765 l -0.37103,-0.80299 c 0.24604,-0.72942 0.37103,-1.51422 0.37103,-2.34411 v -1.25473 c 3.38049,-0.28243 5.9026,-0.42562 7.51333,-0.42562 h 60.35819 c 0.51028,0 0.97071,0.1242 1.4082,0.37895 l 0.92958,0.54192 0.90742,-0.57753 c 0.36313,-0.231 0.80458,-0.34334 1.34966,-0.34334 h 9.62326 l 2.57354,2.96039 v 1.84412 c -1.95092,1.54744 -3.10834,4.29739 -3.52605,8.36062 -0.36471,5.82111 -0.53955,9.64383 -0.53955,11.75693 v 1.76658 h 1.76658 c 0.47705,0 0.81882,0.0261 1.05853,0.0577 -5.19295,17.55351 -8.47929,20.30663 -9.50064,20.72672 -0.78163,-0.36154 -1.65424,-0.54429 -2.60438,-0.54429 h -1.04034 l -0.50473,0.90979 c -8.791,15.87237 -24.79865,27.6823 -47.57992,35.10702 -6.348,1.14081 -11.07814,1.71833 -14.06148,1.71833 h -11.0465"
       style="fill:#002fff;fill-opacity:1;fill-rule:nonzero;stroke:none;stroke-width:0.0791126" />
    <path
       id="path13"
       d="m 971.14689,450.0141 c -3.04188,0 -7.88357,-0.17642 -14.40562,-0.5261 v -3.7175 c 0,-1.0609 -0.59493,-1.84965 -1.25077,-2.40502 0.42483,-0.47626 0.76344,-1.02926 1.03163,-1.51501 l 0.21914,-0.39794 v -59.11374 l -0.91138,-0.50395 c -2.02053,-1.11707 -2.88682,-1.73019 -3.24282,-2.01896 v -62.53932 c 0,-1.07831 -0.59968,-1.8014 -1.82671,-2.31721 1.09887,-0.53085 2.13999,-1.18511 3.12099,-1.9612 2.71277,-0.30221 2.85992,-2.42718 2.85992,-2.8797 v -10.86929 c 0,-1.39712 -0.44382,-4.41923 -4.1542,-5.14311 v -3.2539 h 40.00488 c 0.20253,0.66217 0.53955,2.2025 0.83306,5.63124 l 0.13765,1.61548 h 1.62181 c 0.58939,0 0.98337,0.0372 1.23811,0.0783 v 11.06548 l -3.60041,2.73334 h -4.92239 l -0.125,0.0182 c -2.02924,0.29272 -2.75233,1.68826 -2.75233,2.8971 v 3.00312 h 7.77678 v 61.47447 l -1.2935,2.80375 2.16215,0.46044 c 1.57513,0.33464 2.37022,0.6147 2.7547,0.78558 v 35.43534 l 0.0182,0.12342 c 0.24129,1.69934 1.38526,2.7547 2.98492,2.7547 0.9074,0 1.5324,-0.21993 1.9628,-0.52689 l 5.1051,0.52689 h 44.3134 l -0.3006,1.7025 v 17.44988 l -3.466,-0.59256 -0.5743,0.36392 c -0.163,0.10364 -0.6899,0.34414 -2.0585,0.34414 h -1.7658 v 4.76891 h 1.7658 c 0.077,0.005 0.6337,0.057 3.3338,0.50632 l 0.2729,0.0459 2.4921,-0.3655 v 4.05847 h -79.35951"
       style="fill:#002fff;fill-opacity:1;fill-rule:nonzero;stroke:none;stroke-width:0.0791126" />
    <path
       id="path14"
       d="m 1061.257,425.17195 c -0.6029,-0.25791 -1.2864,-0.52294 -2.0585,-0.79983 -0.023,-0.0554 -0.042,-0.10443 -0.058,-0.14715 0.2057,-0.46914 0.3655,-0.74603 0.4699,-0.90268 h 1.1923 c 0.1147,0.32437 0.2753,0.89081 0.4541,1.84966 z m 22.388,24.57713 c -3.041,0 -7.8527,-0.17642 -14.3178,-0.52452 v -2.89631 l -4.5331,-2.5498 c -0.055,-0.0997 -0.1155,-0.19383 -0.1828,-0.28402 l 0.4739,-3.25153 v -3.66291 c 0,-0.87894 -0.1424,-1.68431 -0.424,-2.40503 0.2816,-0.73653 0.424,-1.52924 0.424,-2.36705 0,0 -8e-4,-3.06482 0,-3.09409 h 1.2405 c 1.7967,0 3.0031,-1.17166 3.0031,-2.9153 v -44.27538 c 0,-1.77608 -1.1803,-2.97543 -2.9437,-3.00233 -5.6922,-0.33385 -9.4722,-0.53084 -11.4611,-0.59572 v -0.12737 l 2.2737,-1.13526 h 12.1319 c 1.7437,0 2.9153,-1.17166 2.9153,-2.91531 v -2.38049 l -2.0506,-3.15343 -5.2341,0.76264 h -0.7246 c -0.068,-0.0823 -0.1693,-0.21993 -0.2975,-0.44224 v -68.631 l 0.8188,-1.77212 c 0.4336,1.25235 1.4581,2.00076 2.8062,2.00076 h 1.1487 c 1.7966,0 3.0031,-1.20647 3.0031,-3.00312 0,-1.79664 -1.2065,-3.00311 -3.0031,-3.00311 h -1.3355 l -0.1835,0.0388 c -1.6487,0.35364 -2.6337,1.46121 -2.6337,2.96435 v 0.12421 c 0,0 0.034,0.23259 0.044,0.2856 l -0.6646,-0.4636 v -5.95718 h 39.9282 c 0.2001,0.57277 0.5363,1.92085 0.8219,4.94058 l 0.052,0.5435 h -0.7136 l 0.036,1.76422 v 70.6096 c 0,3.05612 4.4904,3.38681 6.4073,3.52763 l 0.5451,0.0404 0.4723,-0.27373 c 0.1835,-0.1068 0.3766,-0.19066 0.5807,-0.25237 0.1147,0.15348 0.2444,0.31962 0.3892,0.50158 v 0.86391 c -0.1005,0.0831 -0.2698,0.20569 -0.5435,0.3655 0,0 -3.1416,0 -3.1701,0 v -1.03163 l -4.8678,1.03163 h -5.9508 l -0.125,0.0182 c -1.6978,0.24446 -2.7523,1.38922 -2.7523,2.98571 v 2.52053 l 0.02,0.13291 c 0.2508,1.63288 1.3932,2.64711 2.9834,2.64711 h 10.7822 v 40.12276 c 0,0.87578 0.1551,1.70013 0.4613,2.46199 -0.2595,0.54113 -0.557,0.83622 -0.8703,0.99365 -0.3932,-0.2856 -0.89,-0.44936 -1.4477,-0.44936 h -1.1638 l -1.1329,2.63999 v 17.80983 l 0.018,0.12342 c 0.2888,2.03003 1.6859,2.75391 2.8971,2.75391 h 0.4771 l 0.4129,-0.2405 c 0.1464,-0.0854 0.2983,-0.15585 0.4573,-0.21202 0.2089,0.54587 0.3529,1.10836 0.4328,1.69301 h -25.7291"
       style="fill:#002fff;fill-opacity:1;fill-rule:nonzero;stroke:none;stroke-width:0.0791126" />
    <path
       id="path15"
       d="m 1151.4288,396.45723 h 4.151 v -4.6811 h -4.151 z m 20.2362,52.49597 c -3.6685,0 -9.1051,-0.18037 -16.1762,-0.5348 -0.3505,-6.43265 -0.5277,-11.27276 -0.5277,-14.40166 v -33.59755 l -1.3987,-0.29747 c -2.5173,-0.53559 -3.5743,-0.97229 -3.9928,-1.19776 v -2.41531 l -0.5301,0.28481 v -33.65214 h 6.5403 v -5.91842 h -1.7666 c -0.5894,0 -0.9834,-0.0372 -1.2381,-0.0783 v -7.08137 c 0,-1.23258 -0.568,-2.18747 -1.5055,-2.66531 l 1.7246,-2.10756 h 3.7436 l 0.8086,-7.05684 v -0.10048 c 0,-0.8204 -0.1788,-1.41058 -0.4399,-1.83383 l 0.4399,-2.14 v -9.72452 c 0,-2.41689 -1.2373,-4.25309 -3.4849,-5.16922 l -0.3204,-0.13133 h -0.3466 c -0.5158,0 -0.9794,0.1345 -1.3567,0.37262 l -2.1123,-0.37262 h -34.0889 v -23.86037 h -1.7666 c -0.265,0 -0.4675,-0.0127 -0.6194,-0.0301 0,-0.55695 0.1282,-1.03796 0.3789,-1.46833 l 0.5174,-0.88922 -0.5174,-0.88844 c -0.077,-0.13212 -0.1424,-0.26898 -0.1954,-0.41138 7.8717,-0.37025 13.8416,-0.55696 17.7577,-0.55696 h 99.4192 c 0.5688,0 1.0593,0.12342 1.496,0.37816 l 0.8893,0.51819 0.8892,-0.51819 c 0.2144,-0.125 0.4406,-0.21756 0.6835,-0.28085 0.081,0.12579 0.1393,0.22943 0.1812,0.3117 l -0.5997,1.20014 0.1187,0.59335 c 0.4185,2.09727 1.2088,3.81956 2.352,5.13362 v 21.06927 l -1.7025,-0.30063 h -12.7435 l -3.242,0.47468 c -0.8386,-0.31882 -1.8821,-0.47468 -3.1692,-0.47468 h -0.1124 l -3.7776,0.4818 c -0.8133,-0.31962 -1.7025,-0.4818 -2.6503,-0.4818 h -0.089 v -0.34967 l -4.8409,0.87973 h -7.617 v 22.03287 c -0.4066,0.16613 -1.3196,0.44619 -3.2317,0.69302 l -1.5395,0.19937 v 1.55219 c 0,0.22151 -0.01,0.39635 -0.024,0.53163 h -4.9508 l -0.1962,0.0451 c -1.5768,0.36471 -2.5182,1.4707 -2.5182,2.95881 v 0.13449 l 0.021,0.13291 c 0.25,1.63289 1.3591,2.6479 2.8947,2.6479 h 5.1186 l -0.3449,1.67719 v 6.52125 l 1.5814,1.04192 c -0.8552,0.13211 -1.9928,0.27135 -3.5023,0.4011 l -1.6147,0.13844 v 36.3214 c -0.3758,0.21044 -1.4936,0.6685 -4.4493,1.01581 l -1.5601,0.18354 v 3.95484 h 10.3962 c 1.2579,0.58148 1.8687,0.95805 2.1535,1.16137 v 45.94387 h -23.2433"
       style="fill:#002fff;fill-opacity:1;fill-rule:nonzero;stroke:none;stroke-width:0.0791126" />
    <path
       id="path16"
       d="m 1308.6999,409.43565 c 1.2136,-0.94697 2.7009,-2.25312 4.5506,-4.05294 h 2.265 c -4.0459,3.26735 -5.9904,3.94931 -6.8156,4.05294 z m -59.8859,-34.98281 h 3.534 c 1.7436,0 2.9153,-1.20726 2.9153,-3.00312 V 370.32 l -2.5269,-1.16692 h -3.9224 z m 53.818,75.29624 c -20.6769,0 -39.3348,-7.45953 -55.4572,-22.17053 -1.2547,-1.47149 -3.0435,-2.48967 -5.3448,-3.04504 v -2.22781 l -0.3394,-0.46519 c -6.886,-9.43022 -9.1407,-13.54329 -9.8567,-15.30829 h 3.9058 l 5.2705,-0.95805 -0.8956,-2.04586 c -4.4279,-10.12088 -6.9366,-20.52814 -7.4539,-30.92908 l -0.084,-1.67877 h -0.11 c 0.1282,-0.34493 0.1954,-0.731 0.1954,-1.1503 0,-1.79664 -1.1708,-3.00311 -2.9145,-3.00311 h -0.043 c 2.0989,-0.54509 3.5387,-1.5514 3.5759,-3.37653 0.7484,-10.67862 3.8235,-20.84539 9.1375,-30.21865 l 0.231,-0.40585 v -0.99603 c 0,-1.74364 -1.1716,-2.9153 -2.9153,-2.9153 h -4.3599 c 6.53,-10.9476 13.9476,-18.68244 22.0701,-23.00911 l 0.9351,-0.49921 v -1.0601 c 0,-1.74286 -1.1709,-2.91451 -2.9145,-2.91451 h -7.1842 c 4.6178,-2.93587 11.48,-5.70719 20.4822,-8.2649 6.1447,-1.08543 11.7205,-1.63605 16.5717,-1.63605 h 1.1487 c 0.3972,0 0.7809,-0.0316 1.1503,-0.0949 v 0.63369 l 4.2967,-1.15742 c 18.1887,0.038 33.9219,4.45483 46.7642,13.13032 l 0.4478,0.30221 h 0.5411 c 18.7426,0 19.2663,2.88841 19.2663,2.91768 v 0.84492 l 0.6582,0.53005 c 8.4232,6.7847 15.0678,14.15563 19.756,21.9142 v 1.96437 l -20.7354,10.57894 -0.046,0.0269 c -4.8678,2.86388 -7.0093,3.29108 -7.8527,3.29108 h -4.9287 c -8.8361,-12.1691 -16.7774,-19.02342 -24.2559,-20.93794 -2.4319,-1.13606 -6.1993,-2.50708 -11.2024,-4.07905 l -0.2587,-0.0807 h -0.2705 c -7.1415,0 -15.4713,2.41452 -24.7552,7.17631 l -0.9604,0.49287 v 3.46276 h 1.7666 c 1.322,0 2.318,0.038 3.0656,0.0926 -9.1976,8.62882 -13.851,15.4776 -14.1809,20.8628 -0.8505,1.26738 -1.9794,3.88443 -3.1835,10.50773 h -10.4049 l -0.1353,0.0214 c -1.6305,0.25316 -2.6439,1.39554 -2.6439,2.98175 0,1.89 2.0672,2.92163 2.7452,3.26023 l 0.3726,0.18592 h 9.2427 c 0.3465,1.23732 1.0411,4.51179 2.2381,13.14614 l 0.013,0.0965 0.024,0.0949 c 1.8053,7.12093 5.2974,13.62083 10.393,19.36282 h -5.7633 v 3.74598 l 0.5316,0.51977 c 5.3971,5.27603 14.3328,9.35586 26.5605,12.12481 l 0.1922,0.0435 h 0.1978 c 4.6392,0 11.0892,-1.73494 19.7101,-5.30371 7.8504,-0.0752 14.0908,-2.62971 18.5654,-7.59798 h 1.4913 v -4.68109 h -4.7816 c 1.3607,-2.087 3.242,-4.60278 5.6186,-7.51412 h 5.9777 c 0.7563,0.23971 4.2223,1.78478 19.8249,10.30046 l 0.3955,0.21598 h 0.4502 c 6.9112,0 11.8843,1.27846 14.8114,3.80294 -0.4596,0.50949 -0.814,0.92087 -1.087,1.26264 l -3.0743,-0.46835 h -0.1337 c -3.2689,0 -6.9026,3.71672 -11.7482,12.03462 -1.193,0.43195 -3.5356,0.86786 -8.136,0.86786 h -1.1487 c -1.9517,0 -2.9896,1.97545 -3.3306,2.62417 l -1.3608,2.58777 h 7.9137 c -11.5038,10.44366 -21.3272,16.36682 -29.2139,17.60968 l -0.2666,0.0419 -0.2413,0.11946 c -5.9137,2.92875 -12.7269,4.41291 -20.2497,4.41291 h -12.2838"
       style="fill:#002fff;fill-opacity:1;fill-rule:nonzero;stroke:none;stroke-width:0.0791126" />
    <path
       id="path17"
       d="m 1489.5854,390.27695 z m -0.3085,1.84965 c -1.8038,-0.0229 -2.9035,-0.15902 -3.568,-0.29509 l -0.6804,-1.35678 v -0.20332 h 4.2484 z m -43.0848,17.82249 c 0.07,0.0103 0.1377,0.0198 0.2041,0.0301 h -0.2729 c 0.023,-0.01 0.046,-0.0198 0.069,-0.0301 z m 62.6098,39.18053 c -3.1408,0 -8.1328,-0.16059 -14.8416,-0.47704 v -38.14416 h 3.9082 l 0.8623,-5.78867 v -0.13054 c 0,-0.97308 -0.1898,-1.88446 -0.5696,-2.71831 0.3086,-2.7816 0.538,-4.51337 0.712,-5.59009 h 3.394 c 1.9778,0 3.0062,-2.06643 3.3464,-2.74442 l 0.182,-0.37341 v -3.42083 c 0,-2.27291 -2.6978,-3.01657 -7.7135,-3.44852 l -1.6139,-3.11071 -2.3338,1.25868 h -12.6343 c -1.2975,0 -2.9667,-0.19699 -4.9683,-0.58622 l -0.6487,-0.12817 -0.5775,0.33702 c -0.3402,0.19541 -0.7041,0.31408 -1.1155,0.35759 l -1.6851,-0.84017 -0.8228,0.48258 c -0.087,0.049 -0.174,0.0934 -0.2611,0.13291 v -1.46675 l -3.4176,1.71121 h -16.0449 l -4.0592,-0.71122 -0.5783,0.36866 c -0.1614,0.10285 -0.6852,0.34256 -2.0554,0.34256 h -5.4295 l -0.125,0.0174 c -2.0284,0.29272 -2.7515,1.68827 -2.7515,2.89711 v 20.3715 l 0.02,0.13291 c 0.1439,0.93353 0.5783,1.66453 1.2207,2.12022 h -4.4058 l -4.5229,0.82356 v 38.32295 l -25.0107,0.002 c -3.1463,0 -8.1375,-0.16059 -14.8486,-0.47704 v -6.06478 h 1.8101 l -1.8101,-3.35991 c 0,0 0,-25.71477 0,-25.71477 v 0.86945 l 4.9255,-0.86945 h 10.0995 l 4.5909,-0.94461 v -2.67717 c 0,-1.74364 -1.2064,-2.9153 -3.0031,-2.9153 h -8.927 V 345.4126 l -3.5522,-2.39791 c -0.07,-1.47545 -0.4122,-3.68981 -2.0799,-4.22936 1.0601,-0.63606 1.6653,-1.84807 1.9106,-2.33699 l 0.1867,-0.37341 v -33.02636 c 0,-0.59651 0.1155,-1.08067 0.3426,-1.43826 l 0.5767,-0.90822 -0.5419,-0.92957 c -0.254,-0.43512 -0.3774,-0.92483 -0.3774,-1.49602 v -6.54103 h 4.7729 c 0.678,0 2.0268,0 3.0031,-0.50711 l 3.4066,0.50711 h 24.5209 c 0.9249,0 1.7761,-0.17326 2.5403,-0.51503 0.8513,0.21203 1.3426,0.39478 1.6147,0.5174 v 43.39011 l -5.5276,0.002 -0.1353,0.0206 c -1.6313,0.25316 -2.6439,1.36232 -2.6439,2.89394 v 0.61945 c 0,2.69932 4.0458,3.23175 6.219,3.51735 l 0.5973,0.0783 0.5206,-0.30221 c 0.2152,-0.125 0.4422,-0.21835 0.6851,-0.28085 0.081,0.12499 0.1393,0.22863 0.1812,0.31091 l -0.515,1.03005 v 0.41771 c 0,2.00234 2.0031,3.08698 3.5426,3.66608 0.056,3.36862 0.5048,8.79337 4.1447,8.79337 1.485,0 2.4217,0.0396 3.0055,0.0854 v 0.78322 l 4.9256,-0.86866 h 49.246 l 0.3718,-1.27371 c 0.6567,-2.25313 0.6883,-2.56167 0.6883,-2.87812 0,-0.58148 -0.174,-1.2302 -0.53,-2.01025 l 0.617,-3.03556 -0.3006,-0.56486 c -0.3718,-0.68828 -0.4035,-0.95331 -0.4114,-0.96438 v -1.7658 l -1.7642,0.0348 h -2.3813 v -4.77207 h -6.0284 c 0.2532,-0.002 3.1092,-0.002 3.1092,-0.002 1.7484,0 2.9192,-1.20726 2.9192,-3.00391 v -43.92254 h 39.2399 v 41.71688 l 0.3402,1.67719 h -8.2515 l -3.1566,0.47309 c -0.8386,-0.31803 -1.8828,-0.47309 -3.1645,-0.47309 h -2.5157 l -0.1187,0.0182 c -2.0332,0.29193 -2.7531,1.68748 -2.7531,2.89632 v 0.75394 l 0.016,0.13291 c 0.2531,1.61311 1.3686,2.62258 2.9272,2.64711 6.5979,0.37104 12.3099,0.57752 17.0092,0.61312 l -0.3323,1.58858 v 0.18592 c 0,2.2199 2.5949,3.00944 4.7705,3.38364 v 40.39491 l 1.4082,3.06087 2.4841,-1.06406 h 1.9383 c 1.0601,0.11234 1.606,0.28005 1.8591,0.38844 v 2.27844 c -0.063,0.0498 -0.1424,0.11551 -0.261,0.19541 -1.5823,-0.44857 -1.8513,-0.47388 -2.1282,-0.47388 h -0.1582 l -5.1423,0.90109 v 14.15325 c -0.3323,0.19145 -1.2104,0.5791 -3.3307,0.96992 l -1.4398,0.2674 V 445.725 l 0.4668,3.16055 -0.3798,0.24445 h -24.4853"
       style="fill:#002fff;fill-opacity:1;fill-rule:nonzero;stroke:none;stroke-width:0.0791126" />
    <path
       id="path18"
       d="m 853.35768,453.00773 c -28.93387,0 -52.04978,-12.43572 -68.70695,-36.96143 l -0.52531,-0.77372 h -16.01081 c -0.87499,-0.82672 -3.27764,-4.24439 -8.69764,-18.27027 v -1.43906 h 15.87395 l -2.53003,-20.434 v -2.61704 c 1.76817,-15.2189 3.00628,-19.347 3.53317,-20.46011 7.07584,-0.33069 11.74269,-0.49841 13.87715,-0.49841 h 1.76579 v -4.6811 h -2.38366 c -2.72859,0 -6.46983,-0.0957 -11.16991,-0.28559 l 0.0847,-0.21202 c 7.22931,-18.15952 18.5171,-31.63952 33.55325,-40.07134 6.19135,-0.068 11.60345,-1.50156 16.09467,-4.26417 10.07974,-4.49914 23.06054,-6.77996 38.5856,-6.77996 11.75377,0 22.87067,2.49917 33.11576,7.4358 -0.19066,0.0467 -0.37579,0.0965 -0.55695,0.14873 l -1.27372,0.37025 v 2.97463 l 1.01106,0.47864 c 8.40888,3.97778 17.3407,12.3835 26.54862,24.98456 l 0.52847,0.72388 h 0.89714 c 2.65344,0 3.96117,0.62182 4.63125,1.24444 -0.36945,0.13844 -0.87815,0.30775 -1.57513,0.50395 l -1.28716,0.36233 v 1.11391 c -0.48259,0.69698 -3.18903,3.11624 -18.11917,9.65253 l -0.14003,0.0609 -0.12816,0.0847 c -7.14783,4.74201 -10.09714,5.45007 -11.21896,5.45007 h -3.76814 l -10.74349,-12.89299 -0.31487,-0.16376 c -0.51581,-0.2682 -0.96201,-0.51344 -1.3465,-0.73733 v -4.76417 h -1.62497 c -0.36155,-0.10601 -1.75235,-0.63685 -6.84641,-3.25152 l -0.37974,-0.19462 h -2.81324 c -3.20802,0 -5.77997,-0.66534 -7.64387,-1.97624 l -0.45727,-0.32198 h -9.83844 c -0.8204,0 -1.58146,0.12183 -2.2737,0.36233 l -1.05062,-0.48417 -0.64951,0.20253 c -13.6319,4.26575 -22.72906,9.94129 -27.04386,16.87314 -0.30696,0.28718 -1.59017,1.13922 -6.2768,1.6139 l -1.58779,0.1606 v 2.25075 l 0.0174,0.12421 c 0.26977,1.89791 1.50709,2.65423 2.6566,2.74521 -1.6677,2.28002 -3.7088,7.27124 -6.08693,19.28687 l -0.034,0.17009 v 4.85593 c 0,4.49676 1.01265,10.31787 3.01103,17.32329 h -4.93663 l -3.02289,0.54193 c -0.79034,-0.36788 -1.44697,-0.54193 -2.03399,-0.54193 h -0.4454 l -0.74999,0.40427 c -0.65347,-0.27452 -1.21279,-0.40427 -1.72149,-0.40427 h -1.76579 v 2.68509 l 0.10047,0.28559 c 2.70961,7.70083 8.20082,14.24028 16.32094,19.43719 5.53392,3.91212 7.85351,4.36622 9.11693,4.36622 h 14.23553 c 9.19052,2.73493 15.75291,4.06481 20.05347,4.06481 h 0.29034 l 0.27532,-0.0934 c 8.83688,-2.98809 12.54014,-3.82747 14.06701,-3.95405 0.84334,0.40901 1.53716,0.60125 2.1582,0.60125 h 0.53717 l 0.44699,-0.29983 c 10.49191,-7.04182 13.41513,-9.80839 14.29881,-11.36216 2.40661,-1.89554 5.48172,-5.97221 9.38197,-12.43413 l 0.25474,-0.42088 v -2.87575 h -47.54431 l -8e-4,-14.58441 c 1.49523,-1.00077 2.91689,-2.28952 2.91689,-3.88759 v -0.38766 L 855.902,372.3682 c 0.24604,-0.72942 0.37104,-1.51421 0.37104,-2.34411 v -1.25551 c 3.38127,-0.28164 5.90338,-0.42484 7.51332,-0.42484 h 60.35819 c 0.51028,0 0.97072,0.12421 1.40821,0.37895 l 0.92957,0.54113 0.90742,-0.57673 c 0.36313,-0.23101 0.80458,-0.34335 1.34967,-0.34335 h 9.62326 l 2.57353,2.9604 v 1.84411 c -1.95092,1.54745 -3.10834,4.2974 -3.52605,8.36062 -0.36471,5.82111 -0.53876,9.64304 -0.53876,11.75693 v 1.76659 h 1.7658 c 0.47705,0 0.81881,0.0261 1.05852,0.0577 -5.19295,17.55272 -8.4785,20.30663 -9.49984,20.72672 -0.78243,-0.36155 -1.65504,-0.5443 -2.60518,-0.5443 h -1.04033 l -0.50474,0.9098 c -8.791,15.87237 -24.79864,27.6823 -47.57992,35.10702 -6.348,1.14001 -11.07814,1.71833 -14.06148,1.71833 h -11.04649"
       style="fill:#1bf2dd;fill-opacity:1;fill-rule:nonzero;stroke:none;stroke-width:0.0791126" />
    <path
       id="path19"
       d="m 967.18097,453.97923 c -3.04188,0 -7.88357,-0.17563 -14.40562,-0.52531 v -3.7175 c 0,-1.0609 -0.59492,-1.84966 -1.25077,-2.40503 0.42563,-0.47625 0.76344,-1.02925 1.03163,-1.515 l 0.21914,-0.39794 v -59.11454 l -0.91137,-0.50315 c -2.02054,-1.11708 -2.88682,-1.7302 -3.24283,-2.01896 v -62.53932 c 0,-1.0791 -0.59967,-1.8014 -1.82671,-2.31721 1.09887,-0.53085 2.14,-1.18511 3.12099,-1.96121 2.71277,-0.30221 2.85992,-2.42717 2.85992,-2.8797 v -10.86928 c 0,-1.39713 -0.44382,-4.41923 -4.1542,-5.14311 v -3.2539 h 40.00488 c 0.20253,0.66217 0.54034,2.20249 0.83306,5.63123 l 0.13766,1.61548 h 1.6218 c 0.58939,0 0.98337,0.0372 1.23812,0.0783 v 11.0647 l -3.60042,2.73413 h -4.92239 l -0.12499,0.0182 c -2.02924,0.29271 -2.75233,1.68826 -2.75233,2.8971 v 3.00312 h 7.77677 v 61.47446 l -1.29349,2.80376 2.16215,0.46043 c 1.57513,0.33465 2.37021,0.61471 2.7547,0.78559 v 35.43534 l 0.0182,0.12341 c 0.2413,1.69855 1.38527,2.75391 2.98492,2.75391 0.90742,0 1.53241,-0.21914 1.96358,-0.52609 l 5.10433,0.52609 h 44.3134 l -0.2999,1.7033 v 17.44908 l -3.4667,-0.59176 -0.5736,0.36392 c -0.1629,0.10363 -0.6898,0.34414 -2.0585,0.34414 h -1.7666 v 4.76891 h 1.7666 c 0.076,0.005 0.6329,0.057 3.333,0.50632 l 0.273,0.0451 2.4928,-0.36471 v 4.05769 h -79.36022"
       style="fill:#1bf2dd;fill-opacity:1;fill-rule:nonzero;stroke:none;stroke-width:0.0791126" />
    <path
       id="path20"
       d="m 1057.291,429.13786 c -0.6028,-0.2579 -1.2863,-0.52293 -2.0585,-0.79983 -0.023,-0.0554 -0.042,-0.10442 -0.057,-0.14715 0.2049,-0.46913 0.3647,-0.74682 0.4691,-0.90267 h 1.1922 c 0.1148,0.32436 0.2754,0.89081 0.4541,1.84965 z m 22.3881,24.57713 c -3.0411,0 -7.8527,-0.17642 -14.317,-0.52531 v -2.89552 l -4.5339,-2.5498 c -0.055,-0.0997 -0.1155,-0.19382 -0.1828,-0.28401 l 0.4739,-3.25153 v -3.66292 c 0,-0.87894 -0.1416,-1.6843 -0.424,-2.40502 0.2824,-0.73654 0.424,-1.52925 0.424,-2.36705 0,0 -8e-4,-3.06482 0,-3.09409 h 1.2405 c 1.7967,0 3.0039,-1.17166 3.0039,-2.91531 v -44.27538 c 0,-1.77608 -1.1811,-2.97542 -2.9446,-3.00232 -5.6921,-0.33465 -9.4721,-0.53085 -11.4602,-0.59572 v -0.12737 l 2.2737,-1.13527 h 12.1319 c 1.7429,0 2.9145,-1.17166 2.9145,-2.9153 v -2.3805 l -2.0506,-3.15343 -5.2333,0.76265 h -0.7247 c -0.069,-0.0823 -0.17,-0.21993 -0.2982,-0.44224 v -68.631 l 0.8188,-1.77212 c 0.4335,1.25235 1.4581,2.00076 2.8061,2.00076 h 1.1488 c 1.7966,0 3.0031,-1.20726 3.0031,-3.00391 0,-1.79586 -1.2065,-3.00232 -3.0031,-3.00232 h -1.3355 l -0.1835,0.0388 c -1.6487,0.35363 -2.6337,1.46121 -2.6337,2.96356 v 0.125 c 0,0 0.034,0.23259 0.043,0.28559 l -0.6645,-0.4636 v -5.95718 h 39.9281 c 0.2002,0.57199 0.5364,1.92086 0.822,4.9398 l 0.051,0.5435 h -0.7136 l 0.036,1.765 V 372.941 c 0,3.05612 4.4905,3.38681 6.4074,3.52763 l 0.5451,0.0403 0.4723,-0.27452 c 0.1835,-0.10601 0.3765,-0.18987 0.5806,-0.25158 0.1148,0.15348 0.2445,0.31961 0.3893,0.50157 v 0.86391 c -0.1005,0.0831 -0.2698,0.20569 -0.5435,0.3655 0,0 -3.1416,0 -3.1701,0 v -1.03163 l -4.8678,1.03163 h -5.9508 l -0.125,0.0182 c -1.6978,0.24446 -2.7523,1.38842 -2.7523,2.98571 v 2.52053 l 0.021,0.13212 c 0.2508,1.63367 1.3932,2.64789 2.9834,2.64789 h 10.7822 v 40.12277 c 0,0.87498 0.1551,1.69934 0.4612,2.46198 -0.2594,0.54113 -0.5569,0.83622 -0.8702,0.99366 -0.3932,-0.2856 -0.89,-0.44936 -1.4478,-0.44936 h -1.1637 l -1.1329,2.63998 v 17.80905 l 0.018,0.12421 c 0.2888,2.03003 1.6859,2.75391 2.8971,2.75391 h 0.4771 l 0.4129,-0.2413 c 0.1464,-0.0847 0.2983,-0.15506 0.4573,-0.21123 0.2089,0.54588 0.3528,1.10837 0.4327,1.69301 h -25.729"
       style="fill:#1bf2dd;fill-opacity:1;fill-rule:nonzero;stroke:none;stroke-width:0.0791126" />
    <path
       id="path21"
       d="m 1147.4628,400.42314 h 4.1511 v -4.68109 h -4.1511 z m 20.2363,52.49598 c -3.6685,0 -9.1051,-0.18038 -16.1762,-0.5348 -0.3505,-6.43265 -0.5277,-11.27276 -0.5277,-14.40167 V 404.3851 l -1.3987,-0.29746 c -2.5174,-0.53559 -3.5743,-0.97229 -3.9928,-1.19777 v -2.4153 l -0.5301,0.2848 v -33.65214 h 6.5403 v -5.91921 h -1.7658 c -0.5902,0 -0.9842,-0.0364 -1.2389,-0.0775 v -7.08137 c 0,-1.23257 -0.5681,-2.18825 -1.5055,-2.66609 l 1.7246,-2.10756 h 3.7436 l 0.8086,-7.05606 v -0.10047 c 0,-0.82119 -0.1788,-1.41058 -0.4399,-1.83383 l 0.4399,-2.14 v -9.72452 c 0,-2.41689 -1.2374,-4.2531 -3.4842,-5.17001 l -0.3212,-0.13054 h -0.3465 c -0.5158,0 -0.9786,0.13449 -1.3568,0.37262 l -2.1115,-0.37262 h -34.0896 V 299.2397 h -1.7666 c -0.265,0 -0.4675,-0.0127 -0.6194,-0.0301 0,-0.55695 0.1281,-1.03796 0.3789,-1.46833 l 0.5174,-0.88923 -0.5174,-0.88843 c -0.078,-0.13212 -0.1424,-0.26899 -0.1954,-0.41139 7.8717,-0.37025 13.8416,-0.55695 17.7576,-0.55695 h 99.4193 c 0.5696,0 1.0593,0.12341 1.496,0.37816 l 0.8892,0.51818 0.8893,-0.51818 c 0.2144,-0.125 0.4406,-0.21756 0.6835,-0.28085 0.081,0.12579 0.1392,0.22942 0.1812,0.3117 l -0.5997,1.20014 0.1187,0.59334 c 0.4185,2.09728 1.2088,3.81956 2.352,5.13283 v 21.07007 l -1.7025,-0.30063 h -12.7435 l -3.242,0.47468 c -0.8386,-0.31883 -1.8821,-0.47468 -3.1693,-0.47468 h -0.1115 l -3.7784,0.4818 c -0.8133,-0.32041 -1.7025,-0.4818 -2.6495,-0.4818 h -0.09 v -0.34968 l -4.8409,0.87973 h -7.617 v 22.03287 c -0.4058,0.16614 -1.3196,0.4462 -3.2317,0.69303 l -1.5396,0.19936 v 1.55219 c 0,0.22152 -0.01,0.39636 -0.024,0.53164 h -4.9509 l -0.1962,0.0451 c -1.5767,0.36471 -2.5181,1.47071 -2.5181,2.95882 v 0.13449 l 0.021,0.13291 c 0.25,1.63288 1.3591,2.6479 2.8947,2.6479 h 5.1194 l -0.3458,1.67718 v 6.52126 l 1.5815,1.04191 c -0.8552,0.13212 -1.9928,0.27136 -3.5023,0.4011 l -1.6147,0.13845 v 36.3214 c -0.3758,0.21044 -1.4929,0.6685 -4.4493,1.01581 l -1.5593,0.18354 v 3.95484 h 10.3954 c 1.2579,0.58147 1.8686,0.95805 2.1534,1.16137 v 45.94387 h -23.2432"
       style="fill:#1bf2dd;fill-opacity:1;fill-rule:nonzero;stroke:none;stroke-width:0.0791126" />
    <path
       id="path22"
       d="m 1304.734,413.40078 c 1.2136,-0.94619 2.7009,-2.25234 4.5506,-4.05215 h 2.2649 c -4.0458,3.26735 -5.9904,3.9493 -6.8155,4.05215 z m -59.8851,-34.98202 h 3.5332 c 1.7436,0 2.9153,-1.20726 2.9153,-3.00312 v -1.12973 l -2.5261,-1.16691 h -3.9224 z m 53.8172,75.29623 c -20.6769,0 -39.3348,-7.45953 -55.4572,-22.17052 -1.2547,-1.4715 -3.0427,-2.48968 -5.3449,-3.04584 v -2.22702 l -0.3393,-0.46518 c -6.8852,-9.43023 -9.1407,-13.54329 -9.8567,-15.30829 h 3.9058 l 5.2705,-0.95806 -0.8948,-2.04585 c -4.4287,-10.12088 -6.9374,-20.52815 -7.4548,-30.92987 l -0.084,-1.67798 h -0.1092 c 0.1274,-0.34493 0.1954,-0.731 0.1954,-1.1503 0,-1.79665 -1.1716,-3.00312 -2.9153,-3.00312 h -0.043 c 2.0988,-0.54587 3.5387,-1.5514 3.5759,-3.37652 0.7484,-10.67863 3.8235,-20.84539 9.1383,-30.21865 l 0.2302,-0.40585 v -0.99603 c 0,-1.74364 -1.1717,-2.9153 -2.9153,-2.9153 h -4.3599 c 6.53,-10.94761 13.9476,-18.68245 22.0701,-23.00912 l 0.9351,-0.4992 v -1.06011 c 0,-1.74285 -1.1709,-2.91451 -2.9145,-2.91451 h -7.1843 c 4.6178,-2.93587 11.4809,-5.70718 20.4823,-8.26489 6.1447,-1.08543 11.7205,-1.63605 16.5717,-1.63605 h 1.1487 c 0.3972,0 0.7809,-0.0317 1.1503,-0.0957 v 0.63448 l 4.2966,-1.15741 c 18.1888,0.038 33.9227,4.45483 46.7643,13.13032 l 0.4478,0.30221 h 0.5411 c 18.7426,0 19.2663,2.8884 19.2663,2.91767 v 0.84493 l 0.6582,0.53005 c 8.4231,6.7847 15.0678,14.15562 19.756,21.9142 v 1.96437 l -20.7354,10.57894 -0.045,0.0269 c -4.8686,2.86387 -7.0102,3.29108 -7.8535,3.29108 h -4.9287 c -8.8361,-12.1691 -16.7774,-19.02342 -24.2559,-20.93795 -2.432,-1.13606 -6.1993,-2.50787 -11.2024,-4.07905 l -0.2587,-0.0807 h -0.2706 c -7.1415,0 -15.4712,2.41452 -24.7551,7.17631 l -0.9604,0.49208 v 3.46355 h 1.7666 c 1.3227,0 2.318,0.038 3.0664,0.0926 -9.1984,8.62881 -13.8519,15.47759 -14.1818,20.86279 -0.8496,1.26739 -1.9794,3.88443 -3.1834,10.50774 h -10.4049 l -0.1353,0.0214 c -1.6305,0.25316 -2.644,1.39555 -2.644,2.98176 0,1.89 2.0672,2.92163 2.7452,3.26023 l 0.3727,0.18591 h 9.2427 c 0.3465,1.23732 1.0411,4.5118 2.2381,13.14615 l 0.013,0.0965 0.024,0.0949 c 1.8061,7.12093 5.2974,13.62082 10.393,19.36282 h -5.7634 v 3.74598 l 0.5317,0.51977 c 5.397,5.27602 14.3328,9.35507 26.5605,12.12401 l 0.1922,0.0443 h 0.1978 c 4.6392,0 11.0892,-1.73494 19.7101,-5.30371 7.8504,-0.0752 14.0908,-2.6297 18.5654,-7.59797 h 1.4912 v -4.6811 h -4.7815 c 1.3615,-2.08699 3.2428,-4.60277 5.6186,-7.51412 h 5.9777 c 0.7563,0.23972 4.2222,1.78478 19.8248,10.30047 l 0.3956,0.21518 h 0.4502 c 6.9112,0 11.8843,1.27926 14.8114,3.80374 -0.4588,0.50949 -0.814,0.92087 -1.087,1.26264 l -3.0743,-0.46835 h -0.1337 c -3.2689,0 -6.9026,3.71671 -11.7482,12.03461 -1.1923,0.43196 -3.5356,0.86787 -8.136,0.86787 h -1.1487 c -1.9517,0 -2.9897,1.97544 -3.3306,2.62417 l -1.3608,2.58698 h 7.9137 c -11.5038,10.44445 -21.3272,16.36761 -29.2132,17.61047 l -0.2666,0.0419 -0.2421,0.11946 c -5.9136,2.92875 -12.7268,4.4129 -20.2496,4.4129 h -12.2838"
       style="fill:#1bf2dd;fill-opacity:1;fill-rule:nonzero;stroke:none;stroke-width:0.0791126" />
    <path
       id="path23"
       d="m 1485.6219,394.24286 z m -0.3086,1.84966 c -1.8037,-0.0229 -2.9113,-0.15902 -3.568,-0.29509 l -0.6803,-1.35678 v -0.20332 h 4.2483 z m -43.0871,17.82249 c 0.07,0.0103 0.1385,0.0198 0.2049,0.0301 h -0.2737 c 0.023,-0.009 0.046,-0.0198 0.069,-0.0301 z m 62.6121,39.18053 c -3.1487,0 -8.1328,-0.1606 -14.8494,-0.47705 v -38.14415 h 3.9161 l 0.8544,-5.78867 v -0.13133 c 0,-0.9723 -0.1899,-1.88367 -0.5696,-2.71752 0.3164,-2.7816 0.5458,-4.51338 0.712,-5.5901 h 3.3939 c 1.9778,0 3.0142,-2.06642 3.3544,-2.74442 l 0.1819,-0.37341 v -3.42083 c 0,-2.2729 -2.7056,-3.01735 -7.7214,-3.44852 l -1.6059,-3.11071 -2.3418,1.25869 h -12.6343 c -1.2974,0 -2.9667,-0.19699 -4.9603,-0.58702 l -0.6567,-0.12737 -0.5696,0.33702 c -0.3402,0.19541 -0.7041,0.31408 -1.1234,0.35759 l -1.6772,-0.84018 -0.8227,0.48259 c -0.087,0.0491 -0.1741,0.0933 -0.2611,0.13291 v -1.46675 l -3.4177,1.71121 h -16.0472 l -4.0592,-0.71123 -0.5776,0.36867 c -0.1621,0.10285 -0.6859,0.34256 -2.0561,0.34256 h -5.4287 l -0.1258,0.0174 c -2.0284,0.29272 -2.7515,1.68826 -2.7515,2.89711 v 20.3715 l 0.02,0.13291 c 0.144,0.93353 0.5784,1.66453 1.2208,2.12022 h -4.4058 l -4.5229,0.82356 v 38.32295 l -25.0107,0.002 c -3.1463,0 -8.1375,-0.1606 -14.8486,-0.47705 v -6.06477 h 1.8101 l -1.8101,-3.35992 c 0,0 0,-25.71477 0,-25.71477 v 0.86945 l 4.9256,-0.86945 h 10.0995 l 4.5909,-0.9446 v -2.67717 c 0,-1.74364 -1.2064,-2.9153 -3.0031,-2.9153 h -8.9271 v -61.56308 l -3.5521,-2.3979 c -0.07,-1.47545 -0.4122,-3.68981 -2.0799,-4.22936 1.0601,-0.63607 1.6653,-1.84807 1.9106,-2.33699 l 0.1867,-0.37341 v -33.02636 c 0,-0.5973 0.1155,-1.08068 0.3425,-1.43827 l 0.5768,-0.90821 -0.5419,-0.92957 c -0.2532,-0.43512 -0.3774,-0.92483 -0.3774,-1.49602 v -6.54104 h 4.7729 c 0.6779,0 2.0268,0 3.0031,-0.5079 l 3.4066,0.5079 h 24.5209 c 0.9248,0 1.7761,-0.17325 2.5403,-0.51502 0.8513,0.21202 1.3426,0.39477 1.6147,0.51661 v 43.3909 l -5.5276,0.002 -0.1353,0.0206 c -1.6313,0.25316 -2.6439,1.36232 -2.6439,2.89394 v 0.61866 c 0,2.70012 4.0458,3.23175 6.219,3.51814 l 0.5973,0.0783 0.5214,-0.30221 c 0.2144,-0.125 0.4414,-0.21835 0.6843,-0.28085 0.081,0.125 0.1392,0.22864 0.1812,0.31092 l -0.515,1.03004 v 0.41772 c 0,2.00234 2.0031,3.08697 3.5426,3.66528 0.056,3.36941 0.5048,8.79416 4.1447,8.79416 1.4858,0 2.4217,0.0396 3.0055,0.0855 v 0.78321 l 4.9256,-0.86866 h 49.2484 l 0.3639,-1.27371 c 0.6566,-2.25313 0.6883,-2.56167 0.6883,-2.87812 0,-0.58147 -0.1662,-1.23099 -0.5301,-2.01025 l 0.625,-3.03555 -0.3006,-0.56486 c -0.3719,-0.68828 -0.4114,-0.95331 -0.4114,-0.96439 v -1.76579 l -1.7642,0.0348 h -2.3813 l -0.01,-4.77287 h -6.0205 c 0.2532,-0.002 3.1091,-0.002 3.1091,-0.002 1.7405,0 2.9114,-1.20647 2.9114,-3.00311 v -43.92255 h 39.2398 v 41.71689 l 0.3481,1.67718 h -8.2514 l -3.1566,0.4731 c -0.8386,-0.31804 -1.8829,-0.4731 -3.1645,-0.4731 h -2.5158 l -0.1266,0.0182 c -2.0253,0.29192 -2.7531,1.68747 -2.7531,2.89631 v 0.75395 l 0.024,0.1329 c 0.2453,1.61311 1.3687,2.62259 2.9272,2.64711 6.5901,0.37104 12.302,0.57753 17.0092,0.61234 l -0.3402,1.58937 v 0.18591 c 0,2.2199 2.6028,3.00945 4.7784,3.38365 v 40.39491 l 1.4082,3.06087 2.4842,-1.06407 h 1.9303 c 1.0681,0.11234 1.606,0.28006 1.8592,0.38844 v 2.27845 c -0.055,0.0498 -0.1345,0.1155 -0.2532,0.19541 -1.5822,-0.44857 -1.8512,-0.47468 -2.1281,-0.47468 h -0.1582 l -5.1424,0.90188 v 14.15325 c -0.3322,0.19146 -1.2104,0.57911 -3.3306,0.96992 l -1.4478,0.26741 V 449.691 l 0.4747,3.16055 -0.3797,0.24446 h -24.4854"
       style="fill:#1bf2dd;fill-opacity:1;fill-rule:nonzero;stroke:none;stroke-width:0.0791126" />
    <path
       id="path24"
       d="m 831.54553,453.00773 c -28.93386,0 -52.04978,-12.43572 -68.70694,-36.96143 l -0.52531,-0.77372 h -16.01089 c -0.87515,-0.82672 -3.27756,-4.24439 -8.69772,-18.27027 v -1.43906 h 15.8741 l -2.53002,-20.434 v -2.61704 c 1.76817,-15.2189 3.00628,-19.347 3.53317,-20.46011 7.07583,-0.33069 11.74269,-0.49841 13.87715,-0.49841 h 1.76579 v -4.6811 h -2.38366 c -2.7286,0 -6.46983,-0.0957 -11.16991,-0.28559 l 0.0847,-0.21202 c 7.22931,-18.15952 18.5171,-31.63952 33.55245,-40.07134 6.19215,-0.068 11.60345,-1.50156 16.09547,-4.26417 10.07974,-4.49914 23.06054,-6.77996 38.5856,-6.77996 11.75376,0 22.87067,2.49917 33.11576,7.4358 -0.19066,0.0467 -0.37658,0.0965 -0.55775,0.14873 l -1.27292,0.37025 v 2.97463 l 1.01106,0.47864 c 8.40888,3.97778 17.3407,12.3835 26.54783,24.98456 l 0.52926,0.72388 h 0.89714 c 2.65343,0 3.96117,0.62182 4.63125,1.24444 -0.36946,0.13844 -0.87815,0.30775 -1.57513,0.50395 l -1.28717,0.36233 v 1.11391 c -0.48258,0.69698 -3.18903,3.11624 -18.11916,9.65253 l -0.14082,0.0609 -0.12737,0.0847 c -7.14783,4.74201 -10.09715,5.45007 -11.21897,5.45007 h -3.76813 l -10.74349,-12.89299 -0.31487,-0.16376 c -0.51582,-0.2682 -0.96201,-0.51344 -1.3465,-0.73733 v -4.76417 h -1.62497 c -0.36155,-0.10601 -1.75235,-0.63685 -6.84641,-3.25152 l -0.37974,-0.19462 h -2.81325 c -3.20801,0 -5.77997,-0.66534 -7.64386,-1.97624 l -0.45727,-0.32198 h -9.83845 c -0.82039,0 -1.58146,0.12183 -2.27448,0.36233 l -1.04983,-0.48417 -0.64951,0.20253 c -13.6319,4.26575 -22.72906,9.94129 -27.04387,16.87314 -0.30695,0.28718 -1.59016,1.13922 -6.27679,1.6139 l -1.58858,0.1606 v 2.25075 l 0.0182,0.12421 c 0.26978,1.89791 1.5071,2.65423 2.65661,2.74521 -1.6677,2.28002 -3.7088,7.27124 -6.08693,19.28687 l -0.034,0.17009 v 4.85593 c 0,4.49676 1.01264,10.31787 3.01103,17.32329 h -4.93663 l -3.02289,0.54193 c -0.79034,-0.36788 -1.44697,-0.54193 -2.03399,-0.54193 h -0.4454 l -0.74999,0.40427 c -0.65347,-0.27452 -1.21359,-0.40427 -1.72149,-0.40427 h -1.7658 v 2.68509 l 0.0997,0.28559 c 2.71039,7.70083 8.2016,14.24028 16.32172,19.43719 5.53393,3.91212 7.85351,4.36622 9.11694,4.36622 h 14.23553 c 9.19051,2.73493 15.75211,4.06481 20.05347,4.06481 h 0.29034 l 0.27531,-0.0934 c 8.83688,-2.98809 12.54015,-3.82747 14.06702,-3.95405 0.84334,0.40901 1.53716,0.60125 2.15819,0.60125 h 0.53718 l 0.44698,-0.29983 c 10.49113,-7.04182 13.41513,-9.80839 14.29803,-11.36216 2.40661,-1.89554 5.4825,-5.97221 9.38276,-12.43413 l 0.25474,-0.42088 v -2.87575 h -47.54432 l -7.9e-4,-14.58441 c 1.49523,-1.00077 2.91688,-2.28952 2.91688,-3.88759 v -0.38766 l -0.37103,-0.80299 c 0.24604,-0.72942 0.37103,-1.51421 0.37103,-2.34411 v -1.25551 c 3.38049,-0.28164 5.9026,-0.42484 7.51333,-0.42484 h 60.35819 c 0.51028,0 0.97071,0.12421 1.40821,0.37895 l 0.92957,0.54113 0.90742,-0.57673 c 0.36313,-0.23101 0.80458,-0.34335 1.34966,-0.34335 h 9.62326 l 2.57354,2.9604 v 1.84411 c -1.95092,1.54745 -3.10834,4.2974 -3.52605,8.36062 -0.36471,5.82111 -0.53955,9.64304 -0.53955,11.75693 v 1.76659 h 1.76658 c 0.47705,0 0.81882,0.0261 1.05853,0.0577 -5.19295,17.55272 -8.47929,20.30663 -9.50064,20.72672 -0.78163,-0.36155 -1.65424,-0.5443 -2.60438,-0.5443 h -1.04033 l -0.50474,0.9098 c -8.791,15.87237 -24.79865,27.6823 -47.57992,35.10702 -6.348,1.14001 -11.07814,1.71833 -14.06148,1.71833 h -11.0465"
       style="fill:#f21616;fill-opacity:1;fill-rule:nonzero;stroke:none;stroke-width:0.0791126" />
    <path
       id="path25"
       d="m 945.36883,453.97923 c -3.04188,0 -7.88357,-0.17563 -14.40562,-0.52531 v -3.7175 c 0,-1.0609 -0.59493,-1.84966 -1.25077,-2.40503 0.42484,-0.47625 0.76344,-1.02925 1.03163,-1.515 l 0.21914,-0.39794 v -59.11454 l -0.91138,-0.50315 c -2.02053,-1.11708 -2.88682,-1.7302 -3.24282,-2.01896 v -62.53932 c 0,-1.0791 -0.59968,-1.8014 -1.82671,-2.31721 1.09887,-0.53085 2.13999,-1.18511 3.12099,-1.96121 2.71277,-0.30221 2.85992,-2.42717 2.85992,-2.8797 v -10.86928 c 0,-1.39713 -0.44382,-4.41923 -4.1542,-5.14311 v -3.2539 h 40.00488 c 0.20253,0.66217 0.53955,2.20249 0.83306,5.63123 l 0.13765,1.61548 h 1.62181 c 0.58939,0 0.98337,0.0372 1.23811,0.0783 v 11.0647 l -3.60041,2.73413 h -4.92239 l -0.12579,0.0182 c -2.02845,0.29271 -2.75154,1.68826 -2.75154,2.8971 v 3.00312 h 7.77678 v 61.47446 l -1.2935,2.80376 2.16215,0.46043 c 1.57513,0.33465 2.37022,0.61471 2.7547,0.78559 v 35.43534 l 0.0182,0.12341 c 0.24129,1.69855 1.38526,2.75391 2.98492,2.75391 0.90742,0 1.53241,-0.21914 1.96278,-0.52609 l 5.10514,0.52609 h 44.31334 l -0.3006,1.7033 v 17.44908 l -3.4659,-0.59176 -0.5744,0.36392 c -0.163,0.10363 -0.6899,0.34414 -2.0585,0.34414 h -1.7658 v 4.76891 h 1.7658 c 0.077,0.005 0.6337,0.057 3.3338,0.50632 l 0.2729,0.0451 2.4921,-0.36471 v 4.05769 h -79.35947"
       style="fill:#f21616;fill-opacity:1;fill-rule:nonzero;stroke:none;stroke-width:0.0791126" />
    <path
       id="path26"
       d="m 1035.4789,429.13786 c -0.6028,-0.2579 -1.2864,-0.52293 -2.0585,-0.79983 -0.023,-0.0554 -0.042,-0.10442 -0.058,-0.14715 0.2057,-0.46913 0.3655,-0.74682 0.47,-0.90267 h 1.1922 c 0.1147,0.32436 0.2753,0.89081 0.4541,1.84965 z m 22.3881,24.57713 c -3.0411,0 -7.8527,-0.17642 -14.3178,-0.52531 v -2.89552 l -4.534,-2.5498 c -0.054,-0.0997 -0.1147,-0.19382 -0.1819,-0.28401 l 0.4739,-3.25153 v -3.66292 c 0,-0.87894 -0.1424,-1.6843 -0.4241,-2.40502 0.2817,-0.73654 0.4241,-1.52925 0.4241,-2.36705 0,0 -8e-4,-3.06482 0,-3.09409 h 1.2405 c 1.7966,0 3.0031,-1.17166 3.0031,-2.91531 v -44.27538 c 0,-1.77608 -1.1804,-2.97542 -2.9438,-3.00232 -5.6921,-0.33465 -9.4721,-0.53085 -11.461,-0.59572 v -0.12737 l 2.2737,-1.13527 h 12.1319 c 1.7436,0 2.9153,-1.17166 2.9153,-2.9153 v -2.3805 l -2.0506,-3.15343 -5.2341,0.76265 h -0.7247 c -0.068,-0.0823 -0.1693,-0.21993 -0.2974,-0.44224 v -68.631 l 0.8188,-1.77212 c 0.4335,1.25235 1.458,2.00076 2.8061,2.00076 h 1.1487 c 1.7967,0 3.0031,-1.20726 3.0031,-3.00391 0,-1.79586 -1.2064,-3.00232 -3.0031,-3.00232 h -1.3354 l -0.1836,0.0388 c -1.6487,0.35363 -2.6336,1.46121 -2.6336,2.96356 v 0.125 c 0,0 0.034,0.23259 0.043,0.28559 l -0.6645,-0.4636 v -5.95718 h 39.9281 c 0.2002,0.57199 0.5364,1.92086 0.822,4.9398 l 0.051,0.5435 h -0.7136 l 0.036,1.765 V 372.941 c 0,3.05612 4.4904,3.38681 6.4073,3.52763 l 0.5451,0.0403 0.4723,-0.27452 c 0.1836,-0.10601 0.3766,-0.18987 0.5807,-0.25158 0.1147,0.15348 0.2437,0.31961 0.3892,0.50157 v 0.86391 c -0.1004,0.0831 -0.2697,0.20569 -0.5435,0.3655 0,0 -3.1415,0 -3.17,0 v -1.03163 l -4.8678,1.03163 h -5.9509 l -0.125,0.0182 c -1.6977,0.24446 -2.7523,1.38842 -2.7523,2.98571 v 2.52053 l 0.021,0.13212 c 0.2508,1.63367 1.3932,2.64789 2.9833,2.64789 h 10.7823 v 40.12277 c 0,0.87498 0.155,1.69934 0.4612,2.46198 -0.2595,0.54113 -0.5569,0.83622 -0.8702,0.99366 -0.3932,-0.2856 -0.8901,-0.44936 -1.4478,-0.44936 h -1.1637 l -1.1329,2.63998 v 17.80905 l 0.017,0.12421 c 0.2895,2.03003 1.6867,2.75391 2.8979,2.75391 h 0.477 l 0.413,-0.2413 c 0.1463,-0.0847 0.2982,-0.15506 0.4573,-0.21123 0.2088,0.54588 0.352,1.10837 0.4327,1.69301 h -25.729"
       style="fill:#f21616;fill-opacity:1;fill-rule:nonzero;stroke:none;stroke-width:0.0791126" />
    <path
       id="path27"
       d="m 1125.6507,400.42314 h 4.151 v -4.68109 h -4.151 z m 20.2362,52.49598 c -3.6684,0 -9.1051,-0.18038 -16.1761,-0.5348 -0.3505,-6.43265 -0.5277,-11.27276 -0.5277,-14.40167 V 404.3851 l -1.3987,-0.29746 c -2.5174,-0.53559 -3.5743,-0.97229 -3.9929,-1.19777 v -2.4153 l -0.53,0.2848 v -33.65214 h 6.5402 v -5.91921 h -1.7666 c -0.5893,0 -0.9833,-0.0364 -1.2381,-0.0775 v -7.08137 c 0,-1.23257 -0.568,-2.18825 -1.5055,-2.66609 l 1.7247,-2.10756 h 3.7436 l 0.8085,-7.05606 v -0.10047 c 0,-0.82119 -0.1788,-1.41058 -0.4399,-1.83383 l 0.4399,-2.14 v -9.72452 c 0,-2.41689 -1.2373,-4.2531 -3.4849,-5.17001 l -0.3204,-0.13054 h -0.3465 c -0.5158,0 -0.9794,0.13449 -1.3568,0.37262 l -2.1123,-0.37262 h -34.0888 V 299.2397 h -1.7666 c -0.265,0 -0.4676,-0.0127 -0.6195,-0.0301 0,-0.55695 0.1282,-1.03796 0.379,-1.46833 l 0.5174,-0.88923 -0.5174,-0.88843 c -0.077,-0.13212 -0.1424,-0.26899 -0.1954,-0.41139 7.8717,-0.37025 13.8415,-0.55695 17.7576,-0.55695 h 99.4193 c 0.5688,0 1.0593,0.12341 1.496,0.37816 l 0.8892,0.51818 0.8892,-0.51818 c 0.2144,-0.125 0.4407,-0.21756 0.6836,-0.28085 0.081,0.12579 0.1392,0.22942 0.1811,0.3117 l -0.5996,1.20014 0.1186,0.59334 c 0.4185,2.09728 1.2089,3.81956 2.352,5.13283 v 21.07007 l -1.7025,-0.30063 h -12.7434 l -3.2421,0.47468 c -0.8386,-0.31883 -1.882,-0.47468 -3.1692,-0.47468 h -0.1116 l -3.7784,0.4818 c -0.8133,-0.32041 -1.7025,-0.4818 -2.6495,-0.4818 h -0.09 v -0.34968 l -4.8409,0.87973 h -7.617 v 22.03287 c -0.4067,0.16614 -1.3196,0.4462 -3.2318,0.69303 l -1.5395,0.19936 v 1.55219 c 0,0.22152 -0.01,0.39636 -0.024,0.53164 h -4.9509 l -0.1962,0.0451 c -1.5767,0.36471 -2.5182,1.47071 -2.5182,2.95882 v 0.13449 l 0.021,0.13291 c 0.25,1.63288 1.3592,2.6479 2.8947,2.6479 h 5.1186 l -0.3449,1.67718 v 6.52126 l 1.5815,1.04191 c -0.8552,0.13212 -1.9929,0.27136 -3.5024,0.4011 l -1.6146,0.13845 v 36.3214 c -0.3758,0.21044 -1.4937,0.6685 -4.4493,1.01581 l -1.5601,0.18354 v 3.95484 h 10.3962 c 1.2578,0.58147 1.8686,0.95805 2.1534,1.16137 v 45.94387 h -23.2433"
       style="fill:#f21616;fill-opacity:1;fill-rule:nonzero;stroke:none;stroke-width:0.0791126" />
    <path
       id="path28"
       d="m 1282.9219,413.40078 c 1.2135,-0.94619 2.7009,-2.25234 4.5505,-4.05215 h 2.265 c -4.0458,3.26735 -5.9904,3.9493 -6.8155,4.05215 z m -59.8859,-34.98202 h 3.5339 c 1.7437,0 2.9153,-1.20726 2.9153,-3.00312 v -1.12973 l -2.5268,-1.16691 h -3.9224 z m 53.8179,75.29623 c -20.6769,0 -39.3348,-7.45953 -55.4571,-22.17052 -1.2548,-1.4715 -3.0435,-2.48968 -5.3449,-3.04584 v -2.22702 l -0.3394,-0.46518 c -6.886,-9.43023 -9.1407,-13.54329 -9.8566,-15.30829 h 3.9058 l 5.2704,-0.95806 -0.8955,-2.04585 c -4.4279,-10.12088 -6.9366,-20.52815 -7.454,-30.92987 l -0.084,-1.67798 h -0.1099 c 0.1281,-0.34493 0.1954,-0.731 0.1954,-1.1503 0,-1.79665 -1.1709,-3.00312 -2.9145,-3.00312 h -0.043 c 2.0989,-0.54587 3.5388,-1.5514 3.5759,-3.37652 0.7484,-10.67863 3.8236,-20.84539 9.1383,-30.21865 l 0.2303,-0.40585 v -0.99603 c 0,-1.74364 -1.1717,-2.9153 -2.9153,-2.9153 h -4.3599 c 6.5299,-10.94761 13.9475,-18.68245 22.07,-23.00912 l 0.9351,-0.4992 v -1.06011 c 0,-1.74285 -1.1708,-2.91451 -2.9145,-2.91451 h -7.1842 c 4.6178,-2.93587 11.48,-5.70718 20.4823,-8.26489 6.1446,-1.08543 11.7205,-1.63605 16.5717,-1.63605 h 1.1487 c 0.3971,0 0.7808,-0.0317 1.1503,-0.0957 v 0.63448 l 4.2966,-1.15741 c 18.1888,0.038 33.9219,4.45483 46.7643,13.13032 l 0.4477,0.30221 h 0.5412 c 18.7425,0 19.2663,2.8884 19.2663,2.91767 v 0.84493 l 0.6582,0.53005 c 8.4231,6.7847 15.0678,14.15562 19.756,21.9142 v 1.96437 l -20.7354,10.57894 -0.046,0.0269 c -4.8678,2.86387 -7.0094,3.29108 -7.8527,3.29108 h -4.9288 c -8.836,-12.1691 -16.7774,-19.02342 -24.2559,-20.93795 -2.4319,-1.13606 -6.1992,-2.50787 -11.2023,-4.07905 l -0.2587,-0.0807 h -0.2706 c -7.1415,0 -15.4713,2.41452 -24.7551,7.17631 l -0.9605,0.49208 v 3.46355 h 1.7666 c 1.322,0 2.318,0.038 3.0664,0.0926 -9.1984,8.62881 -13.8518,15.47759 -14.1817,20.86279 -0.8497,1.26739 -1.9794,3.88443 -3.1835,10.50774 h -10.4049 l -0.1353,0.0214 c -1.6305,0.25316 -2.6439,1.39555 -2.6439,2.98176 0,1.89 2.0672,2.92163 2.7452,3.26023 l 0.3726,0.18591 h 9.2427 c 0.3466,1.23732 1.0412,4.5118 2.2381,13.14615 l 0.013,0.0965 0.024,0.0949 c 1.8054,7.12093 5.2974,13.62082 10.3931,19.36282 h -5.7634 v 3.74598 l 0.5316,0.51977 c 5.3971,5.27602 14.3329,9.35507 26.5605,12.12401 l 0.1923,0.0443 h 0.1977 c 4.6392,0 11.0893,-1.73494 19.7102,-5.30371 7.8503,-0.0752 14.0907,-2.6297 18.5653,-7.59797 h 1.4913 v -4.6811 h -4.7816 c 1.3608,-2.08699 3.2421,-4.60277 5.6186,-7.51412 h 5.9778 c 0.7563,0.23972 4.2222,1.78478 19.8248,10.30047 l 0.3956,0.21518 h 0.4501 c 6.9113,0 11.8843,1.27926 14.8115,3.80374 -0.4589,0.50949 -0.8141,0.92087 -1.087,1.26264 l -3.0743,-0.46835 h -0.1337 c -3.269,0 -6.9026,3.71671 -11.7483,12.03461 -1.193,0.43196 -3.5355,0.86787 -8.1359,0.86787 h -1.1487 c -1.9517,0 -2.9897,1.97544 -3.3307,2.62417 l -1.3607,2.58698 h 7.9136 c -11.5037,10.44445 -21.3272,16.36761 -29.2139,17.61047 l -0.2658,0.0419 -0.2421,0.11946 c -5.9137,2.92875 -12.7268,4.4129 -20.2497,4.4129 h -12.2838"
       style="fill:#f21616;fill-opacity:1;fill-rule:nonzero;stroke:none;stroke-width:0.0791126" />
    <path
       id="path29"
       d="m 1463.8105,394.24286 z m -0.3164,1.84966 c -1.7959,-0.0229 -2.9035,-0.15902 -3.5601,-0.29509 l -0.6804,-1.35678 v -0.20332 h 4.2405 z m -43.08,17.82249 c 0.07,0.0103 0.1376,0.0198 0.2041,0.0301 h -0.273 c 0.023,-0.009 0.046,-0.0198 0.069,-0.0301 z m 62.6129,39.18053 c -3.1487,0 -8.1407,-0.1606 -14.8495,-0.47705 v -38.14415 h 3.9161 l 0.8544,-5.78867 v -0.13133 c 0,-0.9723 -0.1899,-1.88367 -0.5696,-2.71752 0.3085,-2.7816 0.5459,-4.51338 0.712,-5.5901 h 3.394 c 1.9778,0 3.0141,-2.06642 3.3464,-2.74442 l 0.1899,-0.37341 v -3.42083 c 0,-2.2729 -2.7057,-3.01735 -7.7214,-3.44852 l -1.606,-3.11071 -2.3417,1.25869 h -12.6311 c -1.2991,0 -2.9684,-0.19699 -4.9652,-0.58702 l -0.6534,-0.12737 -0.5752,0.33702 c -0.3354,0.19541 -0.7033,0.31408 -1.117,0.35759 l -1.6812,-0.84018 -0.8259,0.48259 c -0.084,0.0491 -0.1693,0.0933 -0.2587,0.13291 v -1.46675 l -3.4201,1.71121 h -16.0432 l -4.0593,-0.71123 -0.5783,0.36867 c -0.1614,0.10285 -0.6851,0.34256 -2.0553,0.34256 h -5.4295 l -0.125,0.0174 c -2.0285,0.29272 -2.7516,1.68826 -2.7516,2.89711 v 20.3715 l 0.02,0.13291 c 0.144,0.93353 0.5783,1.66453 1.2207,2.12022 h -4.4058 l -4.5228,0.82356 v 38.32295 l -25.0107,0.002 c -3.1463,0 -8.1375,-0.1606 -14.8487,-0.47705 v -6.06477 h 1.8101 l -1.8101,-3.35992 c 0,0 0,-25.71477 0,-25.71477 v 0.86945 l 4.9256,-0.86945 h 10.0995 l 4.5909,-0.9446 v -2.67717 c 0,-1.74364 -1.2065,-2.9153 -3.0031,-2.9153 h -8.9271 v -61.56308 l -3.5522,-2.3979 c -0.07,-1.47545 -0.4121,-3.68981 -2.0798,-4.22936 1.0601,-0.63607 1.6653,-1.84807 1.9105,-2.33699 l 0.1867,-0.37341 v -33.02636 c 0,-0.5973 0.1155,-1.08068 0.3426,-1.43827 l 0.5767,-0.90821 -0.5419,-0.92957 c -0.2539,-0.43512 -0.3774,-0.92483 -0.3774,-1.49602 v -6.54104 h 4.7729 c 0.678,0 2.0269,0 3.0031,-0.5079 l 3.4066,0.5079 h 24.521 c 0.9248,0 1.7761,-0.17325 2.5403,-0.51502 0.8512,0.21202 1.3425,0.39477 1.6147,0.51661 v 43.3909 l -5.5276,0.002 -0.1353,0.0206 c -1.6313,0.25316 -2.644,1.36232 -2.644,2.89394 v 0.61866 c 0,2.70012 4.0459,3.23175 6.2191,3.51814 l 0.5973,0.0783 0.5205,-0.30221 c 0.2152,-0.125 0.4423,-0.21835 0.6852,-0.28085 0.081,0.125 0.1392,0.22864 0.1811,0.31092 l -0.515,1.03004 v 0.41772 c 0,2.00234 2.0031,3.08697 3.5427,3.66528 0.056,3.36941 0.5047,8.79416 4.1447,8.79416 1.4849,0 2.4216,0.0396 3.0055,0.0855 v 0.78321 l 4.9255,-0.86866 h 49.2492 l 0.3639,-1.27371 c 0.6567,-2.25313 0.6883,-2.56167 0.6883,-2.87812 0,-0.58147 -0.1661,-1.23099 -0.53,-2.01025 l 0.625,-3.03555 -0.3007,-0.56486 c -0.3718,-0.68828 -0.4114,-0.95331 -0.4114,-0.96439 v -1.76579 l -1.7642,0.0348 h -2.3892 v -4.77287 h -6.0204 c 0.2531,-0.002 3.1091,-0.002 3.1091,-0.002 1.7405,0 2.9113,-1.20647 2.9113,-3.00311 v -43.92255 h 39.2399 v 41.71689 l 0.3481,1.67718 h -8.2594 l -3.1487,0.4731 c -0.8385,-0.31804 -1.8828,-0.4731 -3.1645,-0.4731 h -2.5157 l -0.1266,0.0182 c -2.0253,0.29192 -2.7531,1.68747 -2.7531,2.89631 v 0.75395 l 0.024,0.1329 c 0.2452,1.61311 1.3686,2.62259 2.9272,2.64711 6.59,0.37104 12.302,0.57753 17.0092,0.61234 l -0.3402,1.58937 v 0.18591 c 0,2.2199 2.6028,3.00945 4.7705,3.38365 v 40.39491 l 1.4161,3.06087 2.4841,-1.06407 h 1.9304 c 1.068,0.11234 1.606,0.28006 1.8591,0.38844 v 2.27845 c -0.055,0.0498 -0.1345,0.1155 -0.2531,0.19541 -1.5823,-0.44857 -1.8592,-0.47468 -2.1361,-0.47468 h -0.1503 l -5.1502,0.90188 v 14.15325 c -0.3244,0.19146 -1.2025,0.57911 -3.3227,0.96992 l -1.4478,0.26741 V 449.691 l 0.4747,3.16055 -0.3798,0.24446 h -24.4853"
       style="fill:#f21616;fill-opacity:1;fill-rule:nonzero;stroke:none;stroke-width:0.0791126" />
    <path
       id="path30"
       d="m 844.43456,453.00773 c -28.93386,0 -52.04978,-12.43572 -68.70694,-36.96143 l -0.52531,-0.77372 H 759.1915 c -0.87578,-0.82672 -3.27764,-4.24439 -8.69765,-18.27027 v -1.43906 h 15.87395 l -2.53002,-20.434 v -2.61704 c 1.76817,-15.2189 3.00628,-19.347 3.53317,-20.46011 7.07583,-0.33069 11.74269,-0.49841 13.87715,-0.49841 h 1.76579 v -4.6811 h -2.38366 c -2.7286,0 -6.46983,-0.0957 -11.16991,-0.28559 l 0.0847,-0.21202 c 7.22931,-18.15952 18.5171,-31.63952 33.55245,-40.07134 6.19215,-0.068 11.60345,-1.50156 16.09547,-4.26417 10.07974,-4.49914 23.06054,-6.77996 38.5856,-6.77996 11.75376,0 22.87067,2.49917 33.11576,7.4358 -0.19067,0.0467 -0.37658,0.0965 -0.55775,0.14873 l -1.27292,0.37025 v 2.97463 l 1.01106,0.47864 c 8.40888,3.97778 17.3407,12.3835 26.54782,24.98456 l 0.52927,0.72388 h 0.89714 c 2.65343,0 3.96116,0.62182 4.63125,1.24444 -0.36946,0.13844 -0.87815,0.30775 -1.57513,0.50395 l -1.28717,0.36233 v 1.11391 c -0.48258,0.69698 -3.18903,3.11624 -18.11916,9.65253 l -0.14003,0.0609 -0.12816,0.0847 c -7.14783,4.74201 -10.09715,5.45007 -11.21897,5.45007 h -3.76813 l -10.7435,-12.89299 -0.31486,-0.16376 c -0.51582,-0.2682 -0.96201,-0.51344 -1.3465,-0.73733 v -4.76417 h -1.62497 c -0.36155,-0.10601 -1.75235,-0.63685 -6.84641,-3.25152 l -0.37974,-0.19462 h -2.81325 c -3.20801,0 -5.77997,-0.66534 -7.64386,-1.97624 l -0.45727,-0.32198 h -9.83845 c -0.82039,0 -1.58146,0.12183 -2.27448,0.36233 l -1.04983,-0.48417 -0.64951,0.20253 c -13.6319,4.26575 -22.72906,9.94129 -27.04387,16.87314 -0.30695,0.28718 -1.59016,1.13922 -6.27679,1.6139 l -1.58779,0.1606 v 2.25075 l 0.0174,0.12421 c 0.26978,1.89791 1.5071,2.65423 2.6566,2.74521 -1.66769,2.28002 -3.7088,7.27124 -6.08692,19.28687 l -0.034,0.17009 v 4.85593 c 0,4.49676 1.01264,10.31787 3.01103,17.32329 h -4.93663 l -3.02289,0.54193 c -0.79034,-0.36788 -1.44697,-0.54193 -2.03399,-0.54193 h -0.4454 l -0.74999,0.40427 c -0.65347,-0.27452 -1.21359,-0.40427 -1.72149,-0.40427 h -1.7658 v 2.68509 l 0.0997,0.28559 c 2.71039,7.70083 8.2016,14.24028 16.32172,19.43719 5.53393,3.91212 7.85351,4.36622 9.11694,4.36622 h 14.23553 c 9.19051,2.73493 15.75211,4.06481 20.05347,4.06481 h 0.29034 l 0.27531,-0.0934 c 8.83688,-2.98809 12.54015,-3.82747 14.06702,-3.95405 0.84334,0.40901 1.53716,0.60125 2.15819,0.60125 h 0.53718 l 0.44698,-0.29983 c 10.49113,-7.04182 13.41513,-9.80839 14.29803,-11.36216 2.40661,-1.89554 5.4825,-5.97221 9.38276,-12.43413 l 0.25474,-0.42088 v -2.87575 h -47.54432 l -7.9e-4,-14.58441 c 1.49523,-1.00077 2.91688,-2.28952 2.91688,-3.88759 v -0.38766 l -0.37103,-0.80299 c 0.24604,-0.72942 0.37103,-1.51421 0.37103,-2.34411 v -1.25551 c 3.38049,-0.28164 5.9026,-0.42484 7.51333,-0.42484 h 60.35819 c 0.51028,0 0.97071,0.12421 1.4082,0.37895 l 0.92958,0.54113 0.90742,-0.57673 c 0.36313,-0.23101 0.80458,-0.34335 1.34966,-0.34335 h 9.62326 l 2.57354,2.9604 v 1.84411 c -1.95092,1.54745 -3.10834,4.2974 -3.52605,8.36062 -0.36471,5.82111 -0.53955,9.64304 -0.53955,11.75693 v 1.76659 h 1.76658 c 0.47705,0 0.81882,0.0261 1.05853,0.0577 -5.19295,17.55272 -8.47929,20.30663 -9.50064,20.72672 -0.78163,-0.36155 -1.65424,-0.5443 -2.60438,-0.5443 h -1.04033 l -0.50474,0.9098 c -8.791,15.87237 -24.79865,27.6823 -47.57992,35.10702 -6.348,1.14001 -11.07814,1.71833 -14.06148,1.71833 h -11.0465"
       style="fill:#ffffff;fill-opacity:1;fill-rule:nonzero;stroke:none;stroke-width:0.0791126" />
    <path
       id="path31"
       d="m 958.25786,453.97923 c -3.04188,0 -7.88357,-0.17563 -14.40562,-0.52531 v -3.7175 c 0,-1.0609 -0.59493,-1.84966 -1.25077,-2.40503 0.42484,-0.47625 0.76344,-1.02925 1.03163,-1.515 l 0.21914,-0.39794 v -59.11454 l -0.91138,-0.50315 c -2.02053,-1.11708 -2.88682,-1.7302 -3.24282,-2.01896 v -62.53932 c 0,-1.0791 -0.59968,-1.8014 -1.82671,-2.31721 1.09887,-0.53085 2.13999,-1.18511 3.12099,-1.96121 2.71277,-0.30221 2.85992,-2.42717 2.85992,-2.8797 v -10.86928 c 0,-1.39713 -0.44382,-4.41923 -4.1542,-5.14311 v -3.2539 h 40.00488 c 0.20253,0.66217 0.53955,2.20249 0.83306,5.63123 l 0.13765,1.61548 h 1.62181 c 0.58939,0 0.98337,0.0372 1.23811,0.0783 v 11.0647 l -3.60041,2.73413 h -4.92239 l -0.12579,0.0182 c -2.02845,0.29271 -2.75154,1.68826 -2.75154,2.8971 v 3.00312 h 7.77678 v 61.47446 l -1.2935,2.80376 2.16215,0.46043 c 1.57513,0.33465 2.37022,0.61471 2.7547,0.78559 v 35.43534 l 0.0182,0.12341 c 0.24129,1.69855 1.38526,2.75391 2.98492,2.75391 0.90742,0 1.53241,-0.21914 1.96278,-0.52609 l 5.10514,0.52609 h 44.31331 l -0.3006,1.7033 v 17.44908 l -3.4659,-0.59176 -0.5744,0.36392 c -0.1629,0.10363 -0.6898,0.34414 -2.0585,0.34414 h -1.7658 v 4.76891 h 1.7658 c 0.077,0.005 0.6337,0.057 3.3338,0.50632 l 0.273,0.0451 2.492,-0.36471 v 4.05769 h -79.35944"
       style="fill:#ffffff;fill-opacity:1;fill-rule:nonzero;stroke:none;stroke-width:0.0791126" />
    <path
       id="path32"
       d="m 1048.3679,429.13786 c -0.6028,-0.2579 -1.2863,-0.52293 -2.0585,-0.79983 -0.023,-0.0554 -0.042,-0.10442 -0.058,-0.14715 0.2057,-0.46913 0.3655,-0.74682 0.4699,-0.90267 h 1.1922 c 0.1147,0.32436 0.2753,0.89081 0.4541,1.84965 z m 22.3881,24.57713 c -3.0411,0 -7.8527,-0.17642 -14.3178,-0.52531 v -2.89552 l -4.5339,-2.5498 c -0.054,-0.0997 -0.1147,-0.19382 -0.182,-0.28401 l 0.4739,-3.25153 v -3.66292 c 0,-0.87894 -0.1424,-1.6843 -0.424,-2.40502 0.2816,-0.73654 0.424,-1.52925 0.424,-2.36705 0,0 -8e-4,-3.06482 0,-3.09409 h 1.2405 c 1.7966,0 3.0031,-1.17166 3.0031,-2.91531 v -44.27538 c 0,-1.77608 -1.1803,-2.97542 -2.9438,-3.00232 -5.6921,-0.33465 -9.4721,-0.53085 -11.461,-0.59572 v -0.12737 l 2.2737,-1.13527 h 12.1319 c 1.7436,0 2.9153,-1.17166 2.9153,-2.9153 v -2.3805 l -2.0506,-3.15343 -5.2341,0.76265 h -0.7247 c -0.068,-0.0823 -0.1693,-0.21993 -0.2974,-0.44224 v -68.631 l 0.8188,-1.77212 c 0.4335,1.25235 1.458,2.00076 2.8061,2.00076 h 1.1487 c 1.7967,0 3.0032,-1.20726 3.0032,-3.00391 0,-1.79586 -1.2065,-3.00232 -3.0032,-3.00232 h -1.3354 l -0.1835,0.0388 c -1.6487,0.35363 -2.6337,1.46121 -2.6337,2.96356 v 0.125 c 0,0 0.034,0.23259 0.043,0.28559 l -0.6645,-0.4636 v -5.95718 h 39.9281 c 0.2002,0.57199 0.5364,1.92086 0.822,4.9398 l 0.051,0.5435 h -0.7136 l 0.036,1.765 V 372.941 c 0,3.05612 4.4905,3.38681 6.4074,3.52763 l 0.545,0.0403 0.4723,-0.27452 c 0.1836,-0.10601 0.3766,-0.18987 0.5807,-0.25158 0.1147,0.15348 0.2437,0.31961 0.3893,0.50157 v 0.86391 c -0.1005,0.0831 -0.2698,0.20569 -0.5435,0.3655 0,0 -3.1416,0 -3.1701,0 v -1.03163 l -4.8678,1.03163 h -5.9508 l -0.125,0.0182 c -1.6978,0.24446 -2.7524,1.38842 -2.7524,2.98571 v 2.52053 l 0.021,0.13212 c 0.25,1.63367 1.3932,2.64789 2.9833,2.64789 h 10.7823 v 40.12277 c 0,0.87498 0.1551,1.69934 0.4612,2.46198 -0.2595,0.54113 -0.5569,0.83622 -0.8702,0.99366 -0.3932,-0.2856 -0.89,-0.44936 -1.4478,-0.44936 h -1.1637 l -1.1329,2.63998 v 17.80905 l 0.017,0.12421 c 0.2896,2.03003 1.6867,2.75391 2.8979,2.75391 h 0.477 l 0.413,-0.2413 c 0.1464,-0.0847 0.2983,-0.15506 0.4573,-0.21123 0.2088,0.54588 0.352,1.10837 0.4327,1.69301 h -25.729"
       style="fill:#ffffff;fill-opacity:1;fill-rule:nonzero;stroke:none;stroke-width:0.0791126" />
    <path
       id="path33"
       d="m 1138.5397,400.42314 h 4.1511 v -4.68109 h -4.1511 z m 20.2362,52.49598 c -3.6684,0 -9.105,-0.18038 -16.1761,-0.5348 -0.3505,-6.43265 -0.5277,-11.27276 -0.5277,-14.40167 V 404.3851 l -1.3987,-0.29746 c -2.5174,-0.53559 -3.5743,-0.97229 -3.9928,-1.19777 v -2.4153 l -0.5301,0.2848 v -33.65214 h 6.5403 v -5.91921 h -1.7666 c -0.5894,0 -0.9834,-0.0364 -1.2381,-0.0775 v -7.08137 c 0,-1.23257 -0.5681,-2.18825 -1.5056,-2.66609 l 1.7247,-2.10756 h 3.7436 l 0.8085,-7.05606 v -0.10047 c 0,-0.82119 -0.1787,-1.41058 -0.4398,-1.83383 l 0.4398,-2.14 v -9.72452 c 0,-2.41689 -1.2373,-4.2531 -3.4849,-5.17001 l -0.3204,-0.13054 h -0.3465 c -0.5158,0 -0.9794,0.13449 -1.3568,0.37262 l -2.1123,-0.37262 h -34.0888 V 299.2397 h -1.7666 c -0.265,0 -0.4675,-0.0127 -0.6194,-0.0301 0,-0.55695 0.1281,-1.03796 0.3789,-1.46833 l 0.5174,-0.88923 -0.5174,-0.88843 c -0.078,-0.13212 -0.1424,-0.26899 -0.1954,-0.41139 7.8717,-0.37025 13.8416,-0.55695 17.7576,-0.55695 h 99.4193 c 0.5688,0 1.0593,0.12341 1.496,0.37816 l 0.8892,0.51818 0.8893,-0.51818 c 0.2144,-0.125 0.4406,-0.21756 0.6835,-0.28085 0.081,0.12579 0.1392,0.22942 0.1812,0.3117 l -0.5997,1.20014 0.1187,0.59334 c 0.4185,2.09728 1.2088,3.81956 2.352,5.13283 v 21.07007 l -1.7025,-0.30063 h -12.7435 l -3.242,0.47468 c -0.8386,-0.31883 -1.8821,-0.47468 -3.1693,-0.47468 h -0.1123 l -3.7776,0.4818 c -0.8133,-0.32041 -1.7026,-0.4818 -2.6503,-0.4818 h -0.089 v -0.34968 l -4.8409,0.87973 h -7.617 v 22.03287 c -0.4066,0.16614 -1.3196,0.4462 -3.2317,0.69303 l -1.5396,0.19936 v 1.55219 c 0,0.22152 -0.01,0.39636 -0.024,0.53164 h -4.9509 l -0.1962,0.0451 c -1.5767,0.36471 -2.5181,1.47071 -2.5181,2.95882 v 0.13449 l 0.021,0.13291 c 0.25,1.63288 1.3592,2.6479 2.8948,2.6479 h 5.1186 l -0.345,1.67718 v 6.52126 l 1.5815,1.04191 c -0.8552,0.13212 -1.9929,0.27136 -3.5023,0.4011 l -1.6147,0.13845 v 36.3214 c -0.3758,0.21044 -1.4937,0.6685 -4.4493,1.01581 l -1.5601,0.18354 v 3.95484 h 10.3962 c 1.2579,0.58147 1.8686,0.95805 2.1534,1.16137 v 45.94387 h -23.2433"
       style="fill:#ffffff;fill-opacity:1;fill-rule:nonzero;stroke:none;stroke-width:0.0791126" />
    <path
       id="path34"
       d="m 1295.8109,413.40078 c 1.2136,-0.94619 2.7009,-2.25234 4.5505,-4.05215 h 2.265 c -4.0458,3.26735 -5.9904,3.9493 -6.8155,4.05215 z m -59.8859,-34.98202 h 3.534 c 1.7436,0 2.9153,-1.20726 2.9153,-3.00312 v -1.12973 l -2.5269,-1.16691 h -3.9224 z m 53.8179,75.29623 c -20.6768,0 -39.3348,-7.45953 -55.4571,-22.17052 -1.2547,-1.4715 -3.0435,-2.48968 -5.3449,-3.04584 v -2.22702 l -0.3394,-0.46518 c -6.8859,-9.43023 -9.1406,-13.54329 -9.8566,-15.30829 h 3.9058 l 5.2705,-0.95806 -0.8956,-2.04585 c -4.4279,-10.12088 -6.9366,-20.52815 -7.454,-30.92987 l -0.084,-1.67798 h -0.11 c 0.1282,-0.34493 0.1954,-0.731 0.1954,-1.1503 0,-1.79665 -1.1709,-3.00312 -2.9145,-3.00312 h -0.043 c 2.0988,-0.54587 3.5387,-1.5514 3.5759,-3.37652 0.7484,-10.67863 3.8235,-20.84539 9.1383,-30.21865 l 0.2302,-0.40585 v -0.99603 c 0,-1.74364 -1.1717,-2.9153 -2.9153,-2.9153 h -4.3599 c 6.5299,-10.94761 13.9475,-18.68245 22.07,-23.00912 l 0.9351,-0.4992 v -1.06011 c 0,-1.74285 -1.1708,-2.91451 -2.9145,-2.91451 h -7.1842 c 4.6178,-2.93587 11.4801,-5.70718 20.4823,-8.26489 6.1447,-1.08543 11.7205,-1.63605 16.5717,-1.63605 h 1.1487 c 0.3972,0 0.7809,-0.0317 1.1503,-0.0957 v 0.63448 l 4.2966,-1.15741 c 18.1888,0.038 33.9219,4.45483 46.7643,13.13032 l 0.4478,0.30221 h 0.5411 c 18.7426,0 19.2663,2.8884 19.2663,2.91767 v 0.84493 l 0.6582,0.53005 c 8.4231,6.7847 15.0678,14.15562 19.756,21.9142 v 1.96437 l -20.7354,10.57894 -0.046,0.0269 c -4.8678,2.86387 -7.0094,3.29108 -7.8527,3.29108 h -4.9287 c -8.8361,-12.1691 -16.7774,-19.02342 -24.256,-20.93795 -2.4319,-1.13606 -6.1992,-2.50787 -11.2023,-4.07905 l -0.2587,-0.0807 h -0.2706 c -7.1415,0 -15.4712,2.41452 -24.7551,7.17631 l -0.9604,0.49208 v 3.46355 h 1.7666 c 1.3219,0 2.318,0.038 3.0656,0.0926 -9.1977,8.62881 -13.8511,15.47759 -14.181,20.86279 -0.8504,1.26739 -1.9794,3.88443 -3.1835,10.50774 h -10.4049 l -0.1352,0.0214 c -1.6305,0.25316 -2.644,1.39555 -2.644,2.98176 0,1.89 2.0672,2.92163 2.7452,3.26023 l 0.3727,0.18591 h 9.2427 c 0.3465,1.23732 1.0411,4.5118 2.2381,13.14615 l 0.013,0.0965 0.024,0.0949 c 1.8053,7.12093 5.2973,13.62082 10.393,19.36282 h -5.7634 v 3.74598 l 0.5317,0.51977 c 5.397,5.27602 14.3328,9.35507 26.5604,12.12401 l 0.1923,0.0443 h 0.1978 c 4.6391,0 11.0892,-1.73494 19.7101,-5.30371 7.8503,-0.0752 14.0907,-2.6297 18.5654,-7.59797 h 1.4912 v -4.6811 h -4.7815 c 1.3607,-2.08699 3.242,-4.60277 5.6185,-7.51412 h 5.9778 c 0.7563,0.23972 4.2222,1.78478 19.8248,10.30047 l 0.3956,0.21518 h 0.4501 c 6.9113,0 11.8843,1.27926 14.8115,3.80374 -0.4596,0.50949 -0.8141,0.92087 -1.087,1.26264 l -3.0743,-0.46835 h -0.1337 c -3.269,0 -6.9026,3.71671 -11.7482,12.03461 -1.1931,0.43196 -3.5356,0.86787 -8.136,0.86787 h -1.1487 c -1.9517,0 -2.9897,1.97544 -3.3306,2.62417 l -1.3608,2.58698 h 7.9137 c -11.5038,10.44445 -21.3272,16.36761 -29.214,17.61047 l -0.2666,0.0419 -0.2413,0.11946 c -5.9136,2.92875 -12.7268,4.4129 -20.2496,4.4129 h -12.2839"
       style="fill:#ffffff;fill-opacity:1;fill-rule:nonzero;stroke:none;stroke-width:0.0791126" />
    <path
       id="path35"
       d="m 1476.698,394.24286 z m -0.3086,1.84966 c -1.8038,-0.0229 -2.9034,-0.15902 -3.568,-0.29509 l -0.6803,-1.35678 v -0.20332 h 4.2483 z m -43.0863,17.82249 c 0.07,0.0103 0.1377,0.0198 0.2041,0.0301 h -0.2729 c 0.023,-0.009 0.046,-0.0198 0.069,-0.0301 z m 62.6113,39.18053 c -3.1408,0 -8.1328,-0.1606 -14.8494,-0.47705 v -38.14415 h 3.916 l 0.8624,-5.78867 v -0.13133 c 0,-0.9723 -0.1978,-1.88367 -0.5775,-2.71752 0.3164,-2.7816 0.5458,-4.51338 0.7199,-5.5901 h 3.3939 c 1.9699,0 3.0063,-2.06642 3.3465,-2.74442 l 0.1819,-0.37341 v -3.42083 c 0,-2.2729 -2.7056,-3.01735 -7.7134,-3.44852 l -1.6139,-3.11071 -2.3339,1.25869 h -12.6343 c -1.3053,0 -2.9746,-0.19699 -4.9682,-0.58702 l -0.6567,-0.12737 -0.5696,0.33702 c -0.3402,0.19541 -0.7041,0.31408 -1.1155,0.35759 l -1.6851,-0.84018 -0.8259,0.48259 c -0.084,0.0491 -0.1693,0.0933 -0.2587,0.13291 v -1.46675 l -3.42,1.71121 h -16.0433 l -4.0593,-0.71123 -0.5783,0.36867 c -0.1614,0.10285 -0.6851,0.34256 -2.0553,0.34256 h -5.4295 l -0.125,0.0174 c -2.0285,0.29272 -2.7515,1.68826 -2.7515,2.89711 v 20.3715 l 0.02,0.13291 c 0.144,0.93353 0.5783,1.66453 1.2207,2.12022 h -4.4057 l -4.5229,0.82356 v 38.32295 l -25.0107,0.002 c -3.1463,0 -8.1375,-0.1606 -14.8486,-0.47705 v -6.06477 h 1.8101 l -1.8101,-3.35992 c 0,0 0,-25.71477 0,-25.71477 v 0.86945 l 4.9256,-0.86945 h 10.0995 l 4.5909,-0.9446 v -2.67717 c 0,-1.74364 -1.2065,-2.9153 -3.0031,-2.9153 h -8.9271 v -61.56308 l -3.5521,-2.3979 c -0.07,-1.47545 -0.4122,-3.68981 -2.0799,-4.22936 1.0601,-0.63607 1.6653,-1.84807 1.9106,-2.33699 l 0.1867,-0.37341 v -33.02636 c 0,-0.5973 0.1155,-1.08068 0.3425,-1.43827 l 0.5768,-0.90821 -0.542,-0.92957 c -0.2539,-0.43512 -0.3773,-0.92483 -0.3773,-1.49602 v -6.54104 h 4.7728 c 0.678,0 2.0269,0 3.0032,-0.5079 l 3.4065,0.5079 h 24.521 c 0.9248,0 1.7761,-0.17325 2.5403,-0.51502 0.8513,0.21202 1.3426,0.39477 1.6147,0.51661 v 43.3909 l -5.5276,0.002 -0.1353,0.0206 c -1.6313,0.25316 -2.6439,1.36232 -2.6439,2.89394 v 0.61866 c 0,2.70012 4.0458,3.23175 6.219,3.51814 l 0.5973,0.0783 0.5206,-0.30221 c 0.2152,-0.125 0.4422,-0.21835 0.6851,-0.28085 0.081,0.125 0.1392,0.22864 0.1812,0.31092 l -0.5151,1.03004 v 0.41772 c 0,2.00234 2.0032,3.08697 3.5427,3.66528 0.056,3.36941 0.5047,8.79416 4.1447,8.79416 1.485,0 2.4217,0.0396 3.0055,0.0855 v 0.78321 l 4.9256,-0.86866 h 49.2476 l 0.3718,-1.27371 c 0.6487,-2.25313 0.6883,-2.56167 0.6883,-2.87812 0,-0.58147 -0.1741,-1.23099 -0.538,-2.01025 l 0.625,-3.03555 -0.3006,-0.56486 c -0.3719,-0.68828 -0.4114,-0.95331 -0.4114,-0.96439 v -1.76579 l -1.7642,0.0348 h -2.3813 l -0.01,-4.77287 h -6.0205 c 0.2532,-0.002 3.1091,-0.002 3.1091,-0.002 1.7405,0 2.9114,-1.20647 2.9114,-3.00311 v -43.92255 h 39.2398 v 41.71689 l 0.3481,1.67718 h -8.2514 l -3.1566,0.4731 c -0.8386,-0.31804 -1.8829,-0.4731 -3.1645,-0.4731 h -2.5158 l -0.1266,0.0182 c -2.0253,0.29192 -2.7452,1.68747 -2.7452,2.89631 v 0.75395 l 0.016,0.1329 c 0.2453,1.61311 1.3687,2.62259 2.9272,2.64711 6.5901,0.37104 12.302,0.57753 17.0092,0.61234 l -0.3402,1.58937 v 0.18591 c 0,2.2199 2.6028,3.00945 4.7784,3.38365 v 40.39491 l 1.4082,3.06087 2.4842,-1.06407 h 1.9303 c 1.0681,0.11234 1.606,0.28006 1.8592,0.38844 v 2.27845 c -0.055,0.0498 -0.1345,0.1155 -0.2532,0.19541 -1.5822,-0.44857 -1.8512,-0.47468 -2.1281,-0.47468 h -0.1582 l -5.1424,0.90188 v 14.15325 c -0.3322,0.19146 -1.2104,0.57911 -3.3306,0.96992 l -1.4478,0.26741 V 449.691 l 0.4747,3.16055 -0.3797,0.24446 h -24.4854"
       style="fill:#ffffff;fill-opacity:1;fill-rule:nonzero;stroke:none;stroke-width:0.0791126" />
    <text
       xml:space="preserve"
       style="font-style:normal;font-variant:normal;font-weight:normal;font-stretch:normal;font-size:219.042px;line-height:0.1;font-family:'Minecrafter Alt';-inkscape-font-specification:'Minecrafter Alt';white-space:pre;inline-size:841.38;fill:#f9f9f9;fill-opacity:1;stroke:#4f4f4f;stroke-width:8.6510635;stroke-linecap:butt;stroke-dasharray:none;stroke-opacity:0.97794116"
       x="90"
       y="378"
       id="text35"
       transform="matrix(1.1895343,0,0,0.98136037,-68.572635,89.045779)"><tspan
         x="90"
         y="378"
         id="tspan2">MINE</tspan></text>
  </g>
</svg>
